<svg width="3403" height="496" viewBox="0 0 3403 496" fill="none" xmlns="http://www.w3.org/2000/svg">
<g clip-path="url(#clip0_214_22)">
<path d="M94.4053 246.533C94.1348 273.322 100.943 299.707 114.142 323.02C116.504 327.23 117.422 332.097 116.757 336.878C116.093 341.659 113.881 346.091 110.461 349.497L66.3916 393.563C60.5171 399.435 50.7211 398.634 45.9833 391.817C15.7583 348.375 1.03331 297.933 1.0824 247.892L94.4053 246.533Z" fill="#2D4F70"/>
<path d="M126.258 448.288L180.647 390.378C182.126 388.801 184.04 387.701 186.147 387.218C188.254 386.736 190.457 386.892 192.474 387.668C213.488 395.797 236.042 399.176 258.516 397.562C280.99 395.949 302.829 389.382 322.467 378.334C324.496 377.197 326.837 376.741 329.145 377.035C331.452 377.329 333.604 378.357 335.283 379.967L391.318 433.483C392.492 434.602 393.401 435.97 393.978 437.486C394.555 439.002 394.786 440.628 394.654 442.244C394.521 443.861 394.029 445.427 393.212 446.829C392.396 448.23 391.277 449.432 389.936 450.345C366.96 465.953 323.94 489.583 265.381 493.833C203.148 498.351 154.69 478.692 129.167 465.393C127.676 464.617 126.385 463.506 125.395 462.148C124.406 460.789 123.744 459.22 123.462 457.563C123.18 455.906 123.286 454.207 123.771 452.598C124.256 450.989 125.107 449.514 126.258 448.288Z" fill="#2D4F70"/>
<path d="M289.53 170.428C276.632 163.394 262.174 159.715 247.483 159.73C198.87 159.73 159.322 199.278 159.322 247.891C159.305 262.586 162.983 277.048 170.019 289.948C184.967 317.391 214.078 336.05 247.483 336.05C296.094 336.05 335.642 296.502 335.642 247.891C335.629 214.499 316.975 185.385 289.53 170.428Z" fill="#40BDE9"/>
<path d="M146 133.465C172.735 109.722 207.79 95.1569 246.114 94.8236C272.902 94.5556 299.286 101.365 322.599 114.563C326.809 116.925 331.676 117.844 336.457 117.179C341.238 116.514 345.67 114.302 349.076 110.882L393.147 66.8074C399.071 60.8864 398.141 51.0801 391.267 46.2983C294.412 -21.0854 162.2 -11.9223 77.4664 68.3677L146 133.465Z" fill="#40BDE9"/>
<path d="M146 133.465C114.7 161.267 94.8083 201.657 94.4053 246.532L1.0824 247.891C1.15215 181.608 27.156 116.041 77.4664 68.3677L146 133.465Z" fill="#396CB3"/>
</g>
<path d="M782.4 357.8C766.6 357.8 752 355.2 738.6 350C725.2 344.6 713.6 337.1 703.8 327.5C694 317.9 686.3 306.6 680.7 293.6C675.3 280.6 672.6 266.4 672.6 251C672.6 235.6 675.3 221.4 680.7 208.4C686.3 195.4 694 184.1 703.8 174.5C713.8 164.9 725.5 157.5 738.9 152.3C752.3 146.9 766.9 144.2 782.7 144.2C797.9 144.2 812.2 146.8 825.6 152C839 157 850.3 164.6 859.5 174.8L845.4 188.9C836.8 180.1 827.3 173.8 816.9 170C806.5 166 795.3 164 783.3 164C770.7 164 759 166.2 748.2 170.6C737.4 174.8 728 180.9 720 188.9C712 196.7 705.7 205.9 701.1 216.5C696.7 226.9 694.5 238.4 694.5 251C694.5 263.6 696.7 275.2 701.1 285.8C705.7 296.2 712 305.4 720 313.4C728 321.2 737.4 327.3 748.2 331.7C759 335.9 770.7 338 783.3 338C795.3 338 806.5 336 816.9 332C827.3 328 836.8 321.6 845.4 312.8L859.5 326.9C850.3 337.1 839 344.8 825.6 350C812.2 355.2 797.8 357.8 782.4 357.8Z" fill="#717171"/>
<path d="M998.681 356V321.2L997.781 315.5V257.3C997.781 243.9 993.981 233.6 986.381 226.4C978.981 219.2 967.881 215.6 953.081 215.6C942.881 215.6 933.181 217.3 923.981 220.7C914.781 224.1 906.981 228.6 900.581 234.2L890.981 218.3C898.981 211.5 908.581 206.3 919.781 202.7C930.981 198.9 942.781 197 955.181 197C975.581 197 991.281 202.1 1002.28 212.3C1013.48 222.3 1019.08 237.6 1019.08 258.2V356H998.681ZM944.381 357.5C932.581 357.5 922.281 355.6 913.481 351.8C904.881 347.8 898.281 342.4 893.681 335.6C889.081 328.6 886.781 320.6 886.781 311.6C886.781 303.4 888.681 296 892.481 289.4C896.481 282.6 902.881 277.2 911.681 273.2C920.681 269 932.681 266.9 947.681 266.9H1001.98V282.8H948.281C933.081 282.8 922.481 285.5 916.481 290.9C910.681 296.3 907.781 303 907.781 311C907.781 320 911.281 327.2 918.281 332.6C925.281 338 935.081 340.7 947.681 340.7C959.681 340.7 969.981 338 978.581 332.6C987.381 327 993.781 319 997.781 308.6L1002.58 323.3C998.581 333.7 991.581 342 981.581 348.2C971.781 354.4 959.381 357.5 944.381 357.5Z" fill="#717171"/>
<path d="M1076.93 356V198.5H1097.33V241.4L1095.23 233.9C1099.63 221.9 1107.03 212.8 1117.43 206.6C1127.83 200.2 1140.73 197 1156.13 197V217.7C1155.33 217.7 1154.53 217.7 1153.73 217.7C1152.93 217.5 1152.13 217.4 1151.33 217.4C1134.73 217.4 1121.73 222.5 1112.33 232.7C1102.93 242.7 1098.23 257 1098.23 275.6V356H1076.93Z" fill="#717171"/>
<path d="M1276.3 357.5C1262.5 357.5 1250.1 354.4 1239.1 348.2C1228.1 341.8 1219.4 332.6 1213 320.6C1206.6 308.6 1203.4 294.1 1203.4 277.1C1203.4 259.9 1206.6 245.4 1213 233.6C1219.6 221.6 1228.4 212.5 1239.4 206.3C1250.4 200.1 1262.7 197 1276.3 197C1291.3 197 1304.7 200.4 1316.5 207.2C1328.5 213.8 1337.9 223.1 1344.7 235.1C1351.5 247.1 1354.9 261.1 1354.9 277.1C1354.9 292.9 1351.5 306.9 1344.7 319.1C1337.9 331.1 1328.5 340.5 1316.5 347.3C1304.7 354.1 1291.3 357.5 1276.3 357.5ZM1195 356V133.4H1216.3V245L1213.3 276.8L1215.4 308.6V356H1195ZM1274.8 338.6C1286 338.6 1296 336.1 1304.8 331.1C1313.6 325.9 1320.6 318.7 1325.8 309.5C1331 300.1 1333.6 289.3 1333.6 277.1C1333.6 264.7 1331 253.9 1325.8 244.7C1320.6 235.5 1313.6 228.4 1304.8 223.4C1296 218.2 1286 215.6 1274.8 215.6C1263.6 215.6 1253.5 218.2 1244.5 223.4C1235.7 228.4 1228.7 235.5 1223.5 244.7C1218.5 253.9 1216 264.7 1216 277.1C1216 289.3 1218.5 300.1 1223.5 309.5C1228.7 318.7 1235.7 325.9 1244.5 331.1C1253.5 336.1 1263.6 338.6 1274.8 338.6Z" fill="#717171"/>
<path d="M1462.52 357.5C1447.32 357.5 1433.62 354.1 1421.42 347.3C1409.42 340.3 1399.92 330.8 1392.92 318.8C1385.92 306.6 1382.42 292.7 1382.42 277.1C1382.42 261.3 1385.92 247.4 1392.92 235.4C1399.92 223.4 1409.42 214 1421.42 207.2C1433.42 200.4 1447.12 197 1462.52 197C1478.12 197 1491.92 200.4 1503.92 207.2C1516.12 214 1525.62 223.4 1532.42 235.4C1539.42 247.4 1542.92 261.3 1542.92 277.1C1542.92 292.7 1539.42 306.6 1532.42 318.8C1525.62 330.8 1516.12 340.3 1503.92 347.3C1491.72 354.1 1477.92 357.5 1462.52 357.5ZM1462.52 338.6C1473.92 338.6 1484.02 336.1 1492.82 331.1C1501.62 325.9 1508.52 318.7 1513.52 309.5C1518.72 300.1 1521.32 289.3 1521.32 277.1C1521.32 264.7 1518.72 253.9 1513.52 244.7C1508.52 235.5 1501.62 228.4 1492.82 223.4C1484.02 218.2 1474.02 215.6 1462.82 215.6C1451.62 215.6 1441.62 218.2 1432.82 223.4C1424.02 228.4 1417.02 235.5 1411.82 244.7C1406.62 253.9 1404.02 264.7 1404.02 277.1C1404.02 289.3 1406.62 300.1 1411.82 309.5C1417.02 318.7 1424.02 325.9 1432.82 331.1C1441.62 336.1 1451.52 338.6 1462.52 338.6Z" fill="#717171"/>
<path d="M1666.81 197C1679.61 197 1690.81 199.5 1700.41 204.5C1710.21 209.3 1717.81 216.7 1723.21 226.7C1728.81 236.7 1731.61 249.3 1731.61 264.5V356H1710.31V266.6C1710.31 250 1706.11 237.5 1697.71 229.1C1689.51 220.5 1677.91 216.2 1662.91 216.2C1651.71 216.2 1641.91 218.5 1633.51 223.1C1625.31 227.5 1618.91 234 1614.31 242.6C1609.91 251 1607.71 261.2 1607.71 273.2V356H1586.41V198.5H1606.81V241.7L1603.51 233.6C1608.51 222.2 1616.51 213.3 1627.51 206.9C1638.51 200.3 1651.61 197 1666.81 197Z" fill="#717171"/>
<path d="M1856.04 357.5C1839.64 357.5 1825.24 354.1 1812.84 347.3C1800.44 340.3 1790.74 330.8 1783.74 318.8C1776.74 306.6 1773.24 292.7 1773.24 277.1C1773.24 261.5 1776.54 247.7 1783.14 235.7C1789.94 223.7 1799.14 214.3 1810.74 207.5C1822.54 200.5 1835.74 197 1850.34 197C1865.14 197 1878.24 200.4 1889.64 207.2C1901.24 213.8 1910.34 223.2 1916.94 235.4C1923.54 247.4 1926.84 261.3 1926.84 277.1C1926.84 278.1 1926.74 279.2 1926.54 280.4C1926.54 281.4 1926.54 282.5 1926.54 283.7H1789.44V267.8H1915.14L1906.74 274.1C1906.74 262.7 1904.24 252.6 1899.24 243.8C1894.44 234.8 1887.84 227.8 1879.44 222.8C1871.04 217.8 1861.34 215.3 1850.34 215.3C1839.54 215.3 1829.84 217.8 1821.24 222.8C1812.64 227.8 1805.94 234.8 1801.14 243.8C1796.34 252.8 1793.94 263.1 1793.94 274.7V278C1793.94 290 1796.54 300.6 1801.74 309.8C1807.14 318.8 1814.54 325.9 1823.94 331.1C1833.54 336.1 1844.44 338.6 1856.64 338.6C1866.24 338.6 1875.14 336.9 1883.34 333.5C1891.74 330.1 1898.94 324.9 1904.94 317.9L1916.94 331.7C1909.94 340.1 1901.14 346.5 1890.54 350.9C1880.14 355.3 1868.64 357.5 1856.04 357.5Z" fill="#717171"/>
<path d="M2116.71 359C2100.31 359 2084.61 356.7 2069.61 352.1C2054.61 347.3 2042.71 341.2 2033.91 333.8L2047.41 303.5C2055.81 310.1 2066.21 315.6 2078.61 320C2091.01 324.4 2103.71 326.6 2116.71 326.6C2127.71 326.6 2136.61 325.4 2143.41 323C2150.21 320.6 2155.21 317.4 2158.41 313.4C2161.61 309.2 2163.21 304.5 2163.21 299.3C2163.21 292.9 2160.91 287.8 2156.31 284C2151.71 280 2145.71 276.9 2138.31 274.7C2131.11 272.3 2123.01 270.1 2114.01 268.1C2105.21 266.1 2096.31 263.8 2087.31 261.2C2078.51 258.4 2070.41 254.9 2063.01 250.7C2055.81 246.3 2049.91 240.5 2045.31 233.3C2040.71 226.1 2038.41 216.9 2038.41 205.7C2038.41 194.3 2041.41 183.9 2047.41 174.5C2053.61 164.9 2062.91 157.3 2075.31 151.7C2087.91 145.9 2103.81 143 2123.01 143C2135.61 143 2148.11 144.6 2160.51 147.8C2172.91 151 2183.71 155.6 2192.91 161.6L2180.61 191.9C2171.21 186.3 2161.51 182.2 2151.51 179.6C2141.51 176.8 2131.91 175.4 2122.71 175.4C2111.91 175.4 2103.11 176.7 2096.31 179.3C2089.71 181.9 2084.81 185.3 2081.61 189.5C2078.61 193.7 2077.11 198.5 2077.11 203.9C2077.11 210.3 2079.31 215.5 2083.71 219.5C2088.31 223.3 2094.21 226.3 2101.41 228.5C2108.81 230.7 2117.01 232.9 2126.01 235.1C2135.01 237.1 2143.91 239.4 2152.71 242C2161.71 244.6 2169.81 248 2177.01 252.2C2184.41 256.4 2190.31 262.1 2194.71 269.3C2199.31 276.5 2201.61 285.6 2201.61 296.6C2201.61 307.8 2198.51 318.2 2192.31 327.8C2186.31 337.2 2177.01 344.8 2164.41 350.6C2151.81 356.2 2135.91 359 2116.71 359Z" fill="#717171"/>
<path d="M2308.68 358.1C2292.28 358.1 2277.68 354.6 2264.88 347.6C2252.08 340.4 2241.98 330.6 2234.58 318.2C2227.18 305.8 2223.48 291.7 2223.48 275.9C2223.48 259.9 2227.18 245.8 2234.58 233.6C2241.98 221.2 2252.08 211.5 2264.88 204.5C2277.68 197.5 2292.28 194 2308.68 194C2325.28 194 2339.98 197.5 2352.78 204.5C2365.78 211.5 2375.88 221.1 2383.08 233.3C2390.48 245.5 2394.18 259.7 2394.18 275.9C2394.18 291.7 2390.48 305.8 2383.08 318.2C2375.88 330.6 2365.78 340.4 2352.78 347.6C2339.98 354.6 2325.28 358.1 2308.68 358.1ZM2308.68 326C2317.88 326 2326.08 324 2333.28 320C2340.48 316 2346.08 310.2 2350.08 302.6C2354.28 295 2356.38 286.1 2356.38 275.9C2356.38 265.5 2354.28 256.6 2350.08 249.2C2346.08 241.6 2340.48 235.8 2333.28 231.8C2326.08 227.8 2317.98 225.8 2308.98 225.8C2299.78 225.8 2291.58 227.8 2284.38 231.8C2277.38 235.8 2271.78 241.6 2267.58 249.2C2263.38 256.6 2261.28 265.5 2261.28 275.9C2261.28 286.1 2263.38 295 2267.58 302.6C2271.78 310.2 2277.38 316 2284.38 320C2291.58 324 2299.68 326 2308.68 326Z" fill="#717171"/>
<path d="M2435.14 356V186.8C2435.14 170 2440.04 156.6 2449.84 146.6C2459.84 136.4 2474.04 131.3 2492.44 131.3C2499.04 131.3 2505.24 132 2511.04 133.4C2517.04 134.8 2522.04 137 2526.04 140L2515.84 168.2C2513.04 166 2509.84 164.4 2506.24 163.4C2502.64 162.2 2498.94 161.6 2495.14 161.6C2487.34 161.6 2481.44 163.8 2477.44 168.2C2473.44 172.4 2471.44 178.8 2471.44 187.4V205.4L2472.64 222.2V356H2435.14ZM2408.74 227V197H2515.54V227H2408.74Z" fill="#717171"/>
<path d="M2601.08 358.1C2583.48 358.1 2569.88 353.6 2560.28 344.6C2550.68 335.4 2545.88 321.9 2545.88 304.1V160.4H2583.38V303.2C2583.38 310.8 2585.28 316.7 2589.08 320.9C2593.08 325.1 2598.58 327.2 2605.58 327.2C2613.98 327.2 2620.98 325 2626.58 320.6L2637.08 347.3C2632.68 350.9 2627.28 353.6 2620.88 355.4C2614.48 357.2 2607.88 358.1 2601.08 358.1ZM2519.48 227V197H2626.28V227H2519.48Z" fill="#717171"/>
<path d="M2700.4 356L2641.6 195.8H2677L2727.4 337.1H2710.6L2763.4 195.8H2794.9L2846.2 337.1H2829.7L2881.6 195.8H2914.9L2855.8 356H2819.8L2773 230.9H2784.1L2736.4 356H2700.4Z" fill="#717171"/>
<path d="M3034.4 356V323.6L3032.3 316.7V260C3032.3 249 3029 240.5 3022.4 234.5C3015.8 228.3 3005.8 225.2 2992.4 225.2C2983.4 225.2 2974.5 226.6 2965.7 229.4C2957.1 232.2 2949.8 236.1 2943.8 241.1L2929.1 213.8C2937.7 207.2 2947.9 202.3 2959.7 199.1C2971.7 195.7 2984.1 194 2996.9 194C3020.1 194 3038 199.6 3050.6 210.8C3063.4 221.8 3069.8 238.9 3069.8 262.1V356H3034.4ZM2984 358.1C2972 358.1 2961.5 356.1 2952.5 352.1C2943.5 347.9 2936.5 342.2 2931.5 335C2926.7 327.6 2924.3 319.3 2924.3 310.1C2924.3 301.1 2926.4 293 2930.6 285.8C2935 278.6 2942.1 272.9 2951.9 268.7C2961.7 264.5 2974.7 262.4 2990.9 262.4H3037.4V287.3H2993.6C2980.8 287.3 2972.2 289.4 2967.8 293.6C2963.4 297.6 2961.2 302.6 2961.2 308.6C2961.2 315.4 2963.9 320.8 2969.3 324.8C2974.7 328.8 2982.2 330.8 2991.8 330.8C3001 330.8 3009.2 328.7 3016.4 324.5C3023.8 320.3 3029.1 314.1 3032.3 305.9L3038.6 328.4C3035 337.8 3028.5 345.1 3019.1 350.3C3009.9 355.5 2998.2 358.1 2984 358.1Z" fill="#717171"/>
<path d="M3117.93 356V195.8H3153.63V239.9L3149.43 227C3154.23 216.2 3161.73 208 3171.93 202.4C3182.33 196.8 3195.23 194 3210.63 194V229.7C3209.03 229.3 3207.53 229.1 3206.13 229.1C3204.73 228.9 3203.33 228.8 3201.93 228.8C3187.73 228.8 3176.43 233 3168.03 241.4C3159.63 249.6 3155.43 261.9 3155.43 278.3V356H3117.93Z" fill="#717171"/>
<path d="M3316.28 358.1C3298.48 358.1 3282.87 354.6 3269.47 347.6C3256.27 340.4 3245.98 330.6 3238.58 318.2C3231.38 305.8 3227.78 291.7 3227.78 275.9C3227.78 259.9 3231.28 245.8 3238.28 233.6C3245.48 221.2 3255.27 211.5 3267.67 204.5C3280.27 197.5 3294.58 194 3310.58 194C3326.18 194 3340.08 197.4 3352.28 204.2C3364.48 211 3374.08 220.6 3381.08 233C3388.08 245.4 3391.58 260 3391.58 276.8C3391.58 278.4 3391.48 280.2 3391.28 282.2C3391.28 284.2 3391.17 286.1 3390.97 287.9H3257.47V263H3371.17L3356.47 270.8C3356.67 261.6 3354.78 253.5 3350.78 246.5C3346.78 239.5 3341.28 234 3334.28 230C3327.48 226 3319.58 224 3310.58 224C3301.38 224 3293.28 226 3286.28 230C3279.48 234 3274.08 239.6 3270.08 246.8C3266.28 253.8 3264.37 262.1 3264.37 271.7V277.7C3264.37 287.3 3266.57 295.8 3270.97 303.2C3275.37 310.6 3281.58 316.3 3289.58 320.3C3297.58 324.3 3306.77 326.3 3317.17 326.3C3326.17 326.3 3334.27 324.9 3341.47 322.1C3348.67 319.3 3355.07 314.9 3360.67 308.9L3380.78 332C3373.58 340.4 3364.47 346.9 3353.47 351.5C3342.67 355.9 3330.28 358.1 3316.28 358.1Z" fill="#717171"/>
<defs>
<clipPath id="clip0_214_22">
<rect width="496" height="496" fill="white"/>
</clipPath>
</defs>
</svg>
