<svg width="690" height="144" viewBox="0 0 690 144" fill="none" xmlns="http://www.w3.org/2000/svg">
<g clip-path="url(#clip0_217_130)">
<g clip-path="url(#clip1_217_130)">
<path d="M0 0H41.044V97.2325C18.3919 97.2325 0 78.8642 0 56.2394V0Z" fill="#3C7EFF"/>
<path d="M48.754 143.478V102.826H87.5279C89.5985 102.604 102.173 101.055 109.62 90.1897C114.913 82.4652 114.649 74.363 114.486 70.8757C114.328 67.523 113.898 58.3371 106.65 50.588C99.3651 42.7988 90.0571 41.6591 87.5279 41.4336H49.2213C20.8318 43.0208 1.98132 13.0805 0 0H86.1155C125.264 0 157 31.6953 157 70.7936V73.3387C157 112.075 125.558 143.478 86.7701 143.478H48.754Z" fill="#3C7EFF"/>
<path d="M48.7539 68.6523C71.3237 68.6523 89.6474 86.9525 89.6474 109.493V143.479H48.7539V68.6523Z" fill="#3C7EFF"/>
</g>
<path d="M261.167 111.82C255.404 111.82 250.037 110.883 245.067 109.01C240.168 107.065 235.882 104.364 232.208 100.906C228.606 97.3765 225.797 93.2344 223.78 88.48C221.763 83.7256 220.754 78.539 220.754 72.9201C220.754 67.3013 221.763 62.1147 223.78 57.3603C225.797 52.6059 228.642 48.4998 232.316 45.0421C235.99 41.5123 240.276 38.8109 245.175 36.938C250.073 34.993 255.44 34.0205 261.275 34.0205C267.47 34.0205 273.125 35.101 278.239 37.2621C283.354 39.3512 287.676 42.4848 291.206 46.6629L282.129 55.1992C279.392 52.2457 276.33 50.0486 272.945 48.6079C269.559 47.0951 265.885 46.3387 261.923 46.3387C257.961 46.3387 254.323 46.987 251.01 48.2837C247.768 49.5804 244.923 51.4173 242.473 53.7945C240.096 56.1717 238.223 58.9811 236.855 62.2227C235.558 65.4644 234.91 69.0302 234.91 72.9201C234.91 76.8101 235.558 80.3759 236.855 83.6176C238.223 86.8592 240.096 89.6686 242.473 92.0458C244.923 94.423 247.768 96.2599 251.01 97.5566C254.323 98.8533 257.961 99.5016 261.923 99.5016C265.885 99.5016 269.559 98.7812 272.945 97.3405C276.33 95.8277 279.392 93.5586 282.129 90.533L291.206 99.1774C287.676 103.283 283.354 106.417 278.239 108.578C273.125 110.739 267.434 111.82 261.167 111.82ZM338.391 110.739V99.0694L337.635 96.5841V76.1618C337.635 72.1998 336.446 69.1382 334.069 66.9771C331.692 64.744 328.09 63.6274 323.264 63.6274C320.022 63.6274 316.816 64.1317 313.647 65.1402C310.549 66.1487 307.92 67.5534 305.759 69.3543L300.464 59.5214C303.562 57.1442 307.236 55.3793 311.486 54.2267C315.808 53.0021 320.274 52.3898 324.884 52.3898C333.241 52.3898 339.688 54.4068 344.226 58.4408C348.837 62.4028 351.142 68.5619 351.142 76.9182V110.739H338.391ZM320.238 111.496C315.916 111.496 312.134 110.775 308.892 109.335C305.651 107.822 303.129 105.769 301.329 103.175C299.6 100.51 298.735 97.5206 298.735 94.2069C298.735 90.9653 299.492 88.0478 301.004 85.4545C302.589 82.8612 305.146 80.8081 308.676 79.2954C312.206 77.7826 316.888 77.0262 322.723 77.0262H339.472V85.9948H323.696C319.085 85.9948 315.988 86.7511 314.403 88.2639C312.818 89.7046 312.026 91.5055 312.026 93.6666C312.026 96.1159 312.998 98.0609 314.943 99.5016C316.888 100.942 319.59 101.663 323.048 101.663C326.361 101.663 329.315 100.906 331.908 99.3935C334.573 97.8808 336.482 95.6476 337.635 92.6941L339.904 100.798C338.607 104.184 336.266 106.813 332.88 108.686C329.567 110.559 325.353 111.496 320.238 111.496ZM368.476 110.739V53.0381H381.335V68.9221L379.822 64.2758C381.551 60.3858 384.252 57.4323 387.926 55.4153C391.672 53.3983 396.318 52.3898 401.865 52.3898V65.2483C401.289 65.1042 400.748 65.0322 400.244 65.0322C399.74 64.9601 399.236 64.9241 398.731 64.9241C393.617 64.9241 389.547 66.4369 386.521 69.4624C383.496 72.4159 381.983 76.8461 381.983 82.7531V110.739H368.476ZM445.307 111.496C440.409 111.496 436.05 110.415 432.232 108.254C428.415 106.093 425.389 102.851 423.156 98.5291C420.995 94.1349 419.914 88.5881 419.914 81.8887C419.914 75.1173 421.031 69.5705 423.264 65.2483C425.569 60.9261 428.631 57.7205 432.449 55.6314C436.339 53.4703 440.625 52.3898 445.307 52.3898C450.998 52.3898 456.004 53.6144 460.327 56.0636C464.721 58.5129 468.179 61.9346 470.7 66.3288C473.293 70.723 474.59 75.9097 474.59 81.8887C474.59 87.8677 473.293 93.0543 470.7 97.4485C468.179 101.843 464.721 105.301 460.327 107.822C456.004 110.271 450.998 111.496 445.307 111.496ZM413.323 110.739V30.5627H426.83V66.4369L425.749 81.7806L426.181 97.1244V110.739H413.323ZM443.794 99.9338C447.036 99.9338 449.917 99.2134 452.439 97.7727C455.032 96.332 457.085 94.2429 458.598 91.5055C460.111 88.7682 460.867 85.5625 460.867 81.8887C460.867 78.1428 460.111 74.9372 458.598 72.2718C457.085 69.5344 455.032 67.4454 452.439 66.0046C449.917 64.5639 447.036 63.8436 443.794 63.8436C440.553 63.8436 437.635 64.5639 435.042 66.0046C432.449 67.4454 430.396 69.5344 428.883 72.2718C427.37 74.9372 426.614 78.1428 426.614 81.8887C426.614 85.5625 427.37 88.7682 428.883 91.5055C430.396 94.2429 432.449 96.332 435.042 97.7727C437.635 99.2134 440.553 99.9338 443.794 99.9338ZM513.332 111.496C507.426 111.496 502.167 110.235 497.557 107.714C492.946 105.12 489.308 101.591 486.643 97.1244C483.978 92.6581 482.645 87.5796 482.645 81.8887C482.645 76.1258 483.978 71.0472 486.643 66.653C489.308 62.1867 492.946 58.693 497.557 56.1717C502.167 53.6504 507.426 52.3898 513.332 52.3898C519.312 52.3898 524.606 53.6504 529.217 56.1717C533.899 58.693 537.537 62.1507 540.13 66.5449C542.795 70.9391 544.128 76.0537 544.128 81.8887C544.128 87.5796 542.795 92.6581 540.13 97.1244C537.537 101.591 533.899 105.12 529.217 107.714C524.606 110.235 519.312 111.496 513.332 111.496ZM513.332 99.9338C516.646 99.9338 519.6 99.2134 522.193 97.7727C524.786 96.332 526.803 94.2429 528.244 91.5055C529.757 88.7682 530.513 85.5625 530.513 81.8887C530.513 78.1428 529.757 74.9372 528.244 72.2718C526.803 69.5344 524.786 67.4454 522.193 66.0046C519.6 64.5639 516.682 63.8436 513.441 63.8436C510.127 63.8436 507.173 64.5639 504.58 66.0046C502.059 67.4454 500.042 69.5344 498.529 72.2718C497.016 74.9372 496.26 78.1428 496.26 81.8887C496.26 85.5625 497.016 88.7682 498.529 91.5055C500.042 94.2429 502.059 96.332 504.58 97.7727C507.173 99.2134 510.091 99.9338 513.332 99.9338ZM589.784 52.3898C594.395 52.3898 598.501 53.2902 602.103 55.0911C605.777 56.892 608.658 59.6654 610.747 63.4113C612.836 67.0852 613.881 71.8396 613.881 77.6745V110.739H600.374V79.4034C600.374 74.2888 599.149 70.4709 596.7 67.9496C594.323 65.4284 590.973 64.1677 586.651 64.1677C583.481 64.1677 580.672 64.816 578.223 66.1127C575.773 67.4094 573.864 69.3543 572.496 71.9477C571.199 74.4689 570.551 77.6745 570.551 81.5645V110.739H557.044V53.0381H569.902V68.598L567.633 63.8436C569.65 60.1697 572.568 57.3603 576.386 55.4153C580.276 53.3983 584.742 52.3898 589.784 52.3898ZM658.242 111.496C651.831 111.496 646.212 110.235 641.386 107.714C636.631 105.12 632.921 101.591 630.256 97.1244C627.663 92.6581 626.366 87.5796 626.366 81.8887C626.366 76.1258 627.627 71.0472 630.148 66.653C632.741 62.1867 636.271 58.693 640.737 56.1717C645.276 53.6504 650.426 52.3898 656.189 52.3898C661.808 52.3898 666.814 53.6144 671.209 56.0636C675.603 58.5129 679.061 61.9706 681.582 66.4369C684.103 70.9031 685.364 76.1618 685.364 82.2128C685.364 82.7891 685.328 83.4375 685.256 84.1578C685.256 84.8782 685.22 85.5625 685.148 86.2109H637.063V77.2423H678.016L672.721 80.0517C672.794 76.7381 672.109 73.8206 670.668 71.2993C669.228 68.7781 667.247 66.7971 664.725 65.3563C662.276 63.9156 659.431 63.1952 656.189 63.1952C652.875 63.1952 649.958 63.9156 647.437 65.3563C644.987 66.7971 643.042 68.8141 641.602 71.4074C640.233 73.9287 639.549 76.9182 639.549 80.3759V82.537C639.549 85.9948 640.341 89.0563 641.926 91.7216C643.511 94.387 645.744 96.44 648.625 97.8808C651.507 99.3215 654.82 100.042 658.566 100.042C661.808 100.042 664.725 99.5376 667.319 98.5291C669.912 97.5206 672.217 95.9358 674.234 93.7747L681.474 102.095C678.881 105.12 675.603 107.462 671.641 109.118C667.751 110.703 663.285 111.496 658.242 111.496Z" fill="white"/>
</g>
<defs>
<clipPath id="clip0_217_130">
<rect width="690" height="143.478" fill="white"/>
</clipPath>
<clipPath id="clip1_217_130">
<rect width="157" height="143.478" fill="white"/>
</clipPath>
</defs>
</svg>
