<?xml version="1.0" encoding="UTF-8"?>
<svg id="Capa_2" data-name="Capa 2" xmlns="http://www.w3.org/2000/svg" viewBox="0 0 1246.25 1140.41">
  <defs>
    <style>
      .cls-1 {
        fill: none;
        stroke: #fff;
        stroke-miterlimit: 10;
        stroke-width: 2px;
      }
    </style>
  </defs>
  <g id="Capa_1-2" data-name="Capa 1">
    <g>
      <path class="cls-1" d="M1.16,1H326.41V772.47h-90.74C106.24,772.47,1.16,667.39,1.16,537.96V1h0Z"/>
      <path class="cls-1" d="M387.5,1139.41v-322.54h307.25c16.41-1.76,116.05-14.04,175.06-100.26,41.95-61.29,39.85-125.57,38.56-153.25-1.25-26.61-4.66-99.48-62.09-160.97-57.72-61.81-131.48-70.84-151.52-72.64H391.2C166.23,342.34,16.86,104.78,1.16,1h0s682.38,0,682.38,0c310.22,0,561.7,251.48,561.7,561.7v20.2c0,307.35-249.16,556.5-556.5,556.5H387.5Z"/>
      <path class="cls-1" d="M387.5,545.71h90.41c128.95,0,233.64,104.69,233.64,233.64v360.06H387.5V545.71h0Z"/>
    </g>
  </g>
</svg>