<svg width="1135" height="157" viewBox="0 0 1135 157" fill="none" xmlns="http://www.w3.org/2000/svg">
<g clip-path="url(#clip0_243_36)">
<path d="M29.5398 77.8989C29.4541 86.3785 31.6092 94.7302 35.787 102.11C36.5346 103.442 36.8253 104.983 36.6149 106.496C36.4045 108.009 35.7045 109.412 34.6218 110.49L20.6725 124.439C18.8131 126.297 15.7123 126.044 14.2126 123.886C4.64544 110.135 -0.0154977 94.1689 3.87111e-05 78.329L29.5398 77.8989Z" fill="white"/>
<path d="M39.6221 141.761L56.8382 123.431C57.3061 122.932 57.9122 122.583 58.579 122.431C59.2459 122.278 59.9431 122.327 60.5816 122.573C67.2335 125.146 74.3722 126.216 81.4861 125.705C88.6 125.194 95.5127 123.116 101.729 119.618C102.371 119.258 103.112 119.114 103.842 119.207C104.573 119.3 105.254 119.626 105.785 120.135L123.522 137.075C123.894 137.429 124.182 137.862 124.364 138.342C124.547 138.822 124.62 139.336 124.578 139.848C124.536 140.36 124.38 140.855 124.122 141.299C123.863 141.743 123.509 142.123 123.085 142.412C115.812 147.353 102.195 154.832 83.659 156.177C63.9604 157.608 48.6218 151.385 40.5429 147.175C40.071 146.93 39.6624 146.578 39.3491 146.148C39.0359 145.718 38.8264 145.221 38.7372 144.697C38.648 144.173 38.6815 143.635 38.8351 143.125C38.9886 142.616 39.258 142.149 39.6221 141.761Z" fill="white"/>
<path d="M91.3029 53.8092C87.2205 51.5829 82.6439 50.4185 77.9938 50.4231C62.6062 50.4231 50.0879 62.9414 50.0879 78.329C50.0825 82.9802 51.2469 87.558 53.474 91.6413C58.2053 100.328 67.4201 106.234 77.9938 106.234C93.3807 106.234 105.899 93.7159 105.899 78.329C105.895 67.7593 99.9902 58.5438 91.3029 53.8092Z" fill="white"/>
<path d="M45.8712 42.1095C54.3337 34.5939 65.43 29.9837 77.5607 29.8782C86.04 29.7933 94.3913 31.9487 101.771 36.1263C103.103 36.874 104.644 37.1648 106.157 36.9544C107.67 36.744 109.073 36.0439 110.151 34.9611L124.101 21.0101C125.976 19.1359 125.682 16.0319 123.506 14.5184C92.8485 -6.81075 50.9991 -3.91034 24.1782 21.504L45.8712 42.1095Z" fill="white"/>
<path d="M45.871 42.1093C35.9636 50.9095 29.6673 63.6944 29.5397 77.8988L0 78.3289C0.0220781 57.3482 8.25313 36.5939 24.178 21.5039L45.871 42.1093Z" fill="white"/>
<path d="M258.753 116.538C253.219 116.538 248.066 115.638 243.293 113.84C238.59 111.972 234.474 109.378 230.947 106.058C227.488 102.669 224.79 98.6916 222.854 94.1264C220.917 89.5612 219.949 84.5809 219.949 79.1856C219.949 73.7903 220.917 68.8101 222.854 64.2448C224.79 59.6796 227.523 55.7369 231.05 52.4167C234.578 49.0274 238.694 46.4335 243.397 44.6351C248.101 42.7675 253.254 41.8337 258.857 41.8337C264.805 41.8337 270.235 42.8712 275.146 44.9463C280.057 46.9523 284.208 49.9612 287.597 53.9731L278.882 62.1697C276.253 59.3338 273.313 57.2241 270.062 55.8407C266.811 54.3881 263.284 53.6618 259.479 53.6618C255.675 53.6618 252.182 54.2843 249 55.5294C245.887 56.7745 243.155 58.5383 240.803 60.8209C238.521 63.1035 236.722 65.8012 235.408 68.9138C234.163 72.0265 233.54 75.4504 233.54 79.1856C233.54 82.9208 234.163 86.3447 235.408 89.4574C236.722 92.5701 238.521 95.2677 240.803 97.5503C243.155 99.8329 245.887 101.597 249 102.842C252.182 104.087 255.675 104.709 259.479 104.709C263.284 104.709 266.811 104.018 270.062 102.634C273.313 101.182 276.253 99.0029 278.882 96.0977L287.597 104.398C284.208 108.341 280.057 111.35 275.146 113.425C270.235 115.5 264.771 116.538 258.753 116.538ZM332.905 115.5V104.294L332.179 101.908V82.2983C332.179 78.4939 331.037 75.5542 328.755 73.4791C326.472 71.3348 323.014 70.2627 318.379 70.2627C315.266 70.2627 312.188 70.7468 309.145 71.7152C306.171 72.6836 303.646 74.0324 301.571 75.7617L296.487 66.32C299.461 64.0373 302.989 62.3427 307.07 61.2359C311.22 60.06 315.509 59.4721 319.935 59.4721C327.959 59.4721 334.15 61.4089 338.508 65.2824C342.935 69.0868 345.148 75.0008 345.148 83.0246V115.5H332.905ZM315.474 116.226C311.324 116.226 307.692 115.535 304.58 114.151C301.467 112.699 299.046 110.727 297.317 108.237C295.657 105.678 294.827 102.807 294.827 99.6254C294.827 96.5128 295.553 93.7114 297.006 91.2212C298.527 88.7311 300.983 86.7598 304.372 85.3072C307.762 83.8546 312.258 83.1283 317.86 83.1283H333.942V91.74H318.794C314.367 91.74 311.393 92.4663 309.871 93.9189C308.349 95.3023 307.589 97.0315 307.589 99.1067C307.589 101.458 308.522 103.326 310.39 104.709C312.258 106.093 314.851 106.785 318.172 106.785C321.353 106.785 324.189 106.058 326.68 104.606C329.239 103.153 331.072 101.009 332.179 98.1729L334.357 105.955C333.112 109.206 330.864 111.73 327.613 113.529C324.432 115.327 320.385 116.226 315.474 116.226ZM361.793 115.5V60.0946H374.14V75.3467L372.687 70.8852C374.347 67.15 376.941 64.314 380.469 62.3772C384.065 60.4405 388.527 59.4721 393.853 59.4721V71.819C393.3 71.6806 392.781 71.6115 392.297 71.6115C391.813 71.5423 391.328 71.5077 390.844 71.5077C385.933 71.5077 382.025 72.9603 379.12 75.8654C376.215 78.7014 374.762 82.9554 374.762 88.6274V115.5H361.793ZM435.567 116.226C430.863 116.226 426.678 115.189 423.012 113.114C419.346 111.039 416.441 107.926 414.297 103.776C412.222 99.5563 411.184 94.2301 411.184 87.7973C411.184 81.2953 412.256 75.9692 414.401 71.819C416.614 67.6688 419.554 64.5907 423.22 62.5848C426.955 60.5097 431.071 59.4721 435.567 59.4721C441.031 59.4721 445.839 60.648 449.989 62.9998C454.208 65.3516 457.528 68.6372 459.949 72.8565C462.439 77.0759 463.685 82.0562 463.685 87.7973C463.685 93.5384 462.439 98.5187 459.949 102.738C457.528 106.957 454.208 110.278 449.989 112.699C445.839 115.05 441.031 116.226 435.567 116.226ZM404.855 115.5V38.5135H417.825V72.9603L416.787 87.6936L417.202 102.427V115.5H404.855ZM434.114 105.124C437.227 105.124 439.994 104.433 442.415 103.049C444.905 101.666 446.876 99.66 448.329 97.0315C449.781 94.4031 450.508 91.325 450.508 87.7973C450.508 84.2005 449.781 81.1224 448.329 78.5631C446.876 75.9346 444.905 73.9287 442.415 72.5453C439.994 71.1619 437.227 70.4702 434.114 70.4702C431.002 70.4702 428.2 71.1619 425.71 72.5453C423.22 73.9287 421.249 75.9346 419.796 78.5631C418.343 81.1224 417.617 84.2005 417.617 87.7973C417.617 91.325 418.343 94.4031 419.796 97.0315C421.249 99.66 423.22 101.666 425.71 103.049C428.2 104.433 431.002 105.124 434.114 105.124ZM500.886 116.226C495.214 116.226 490.164 115.016 485.737 112.595C481.31 110.105 477.817 106.715 475.258 102.427C472.699 98.1383 471.419 93.2618 471.419 87.7973C471.419 82.2637 472.699 77.3872 475.258 73.1678C477.817 68.8793 481.31 65.5245 485.737 63.1035C490.164 60.6826 495.214 59.4721 500.886 59.4721C506.627 59.4721 511.711 60.6826 516.138 63.1035C520.634 65.5245 524.127 68.8447 526.617 73.0641C529.176 77.2834 530.456 82.1945 530.456 87.7973C530.456 93.2618 529.176 98.1383 526.617 102.427C524.127 106.715 520.634 110.105 516.138 112.595C511.711 115.016 506.627 116.226 500.886 116.226ZM500.886 105.124C504.067 105.124 506.903 104.433 509.394 103.049C511.884 101.666 513.82 99.66 515.204 97.0315C516.656 94.4031 517.383 91.325 517.383 87.7973C517.383 84.2005 516.656 81.1224 515.204 78.5631C513.82 75.9346 511.884 73.9287 509.394 72.5453C506.903 71.1619 504.102 70.4702 500.989 70.4702C497.808 70.4702 494.972 71.1619 492.481 72.5453C490.061 73.9287 488.124 75.9346 486.671 78.5631C485.219 81.1224 484.492 84.2005 484.492 87.7973C484.492 91.325 485.219 94.4031 486.671 97.0315C488.124 99.66 490.061 101.666 492.481 103.049C494.972 104.433 497.773 105.124 500.886 105.124ZM574.296 59.4721C578.723 59.4721 582.665 60.3367 586.124 62.066C589.652 63.7952 592.418 66.4583 594.424 70.0551C596.43 73.5828 597.433 78.1481 597.433 83.7509V115.5H584.464V85.4109C584.464 80.4999 583.288 76.8338 580.936 74.4129C578.654 71.9919 575.437 70.7814 571.287 70.7814C568.243 70.7814 565.546 71.404 563.194 72.649C560.842 73.8941 559.009 75.7617 557.695 78.2518C556.45 80.6728 555.827 83.7509 555.827 87.486V115.5H542.858V60.0946H555.205V75.0354L553.026 70.4702C554.963 66.9425 557.764 64.2448 561.43 62.3772C565.165 60.4405 569.454 59.4721 574.296 59.4721ZM640.03 116.226C633.874 116.226 628.478 115.016 623.844 112.595C619.279 110.105 615.716 106.715 613.157 102.427C610.667 98.1383 609.422 93.2618 609.422 87.7973C609.422 82.2637 610.632 77.3872 613.053 73.1678C615.543 68.8793 618.933 65.5245 623.221 63.1035C627.579 60.6826 632.525 59.4721 638.058 59.4721C643.454 59.4721 648.261 60.648 652.48 62.9998C656.7 65.3516 660.02 68.6717 662.441 72.9603C664.862 77.2489 666.072 82.2983 666.072 88.1086C666.072 88.6619 666.038 89.2845 665.969 89.9762C665.969 90.6679 665.934 91.325 665.865 91.9475H619.694V83.3358H659.017L653.933 86.0335C654.002 82.8516 653.345 80.0502 651.962 77.6293C650.578 75.2083 648.676 73.3061 646.255 71.9227C643.903 70.5393 641.171 69.8476 638.058 69.8476C634.877 69.8476 632.075 70.5393 629.654 71.9227C627.302 73.3061 625.435 75.2429 624.051 77.733C622.737 80.154 622.08 83.0246 622.08 86.3447V88.4198C622.08 91.74 622.841 94.6798 624.363 97.2391C625.884 99.7984 628.029 101.77 630.795 103.153C633.562 104.537 636.744 105.228 640.341 105.228C643.454 105.228 646.255 104.744 648.745 103.776C651.235 102.807 653.449 101.286 655.386 99.2104L662.337 107.2C659.847 110.105 656.7 112.353 652.895 113.944C649.16 115.465 644.872 116.226 640.03 116.226ZM730.965 116.538C725.293 116.538 719.863 115.742 714.675 114.151C709.487 112.491 705.372 110.381 702.328 107.822L706.997 97.3428C709.902 99.6254 713.499 101.528 717.788 103.049C722.076 104.571 726.469 105.332 730.965 105.332C734.769 105.332 737.847 104.917 740.199 104.087C742.551 103.257 744.28 102.15 745.387 100.767C746.494 99.3142 747.047 97.6887 747.047 95.8902C747.047 93.6768 746.251 91.9129 744.661 90.5987C743.07 89.2153 740.995 88.1432 738.435 87.3823C735.945 86.5522 733.144 85.7914 730.031 85.0997C726.988 84.408 723.909 83.6125 720.797 82.7133C717.753 81.7449 714.952 80.5344 712.393 79.0819C709.902 77.5601 707.862 75.5542 706.271 73.0641C704.68 70.5739 703.885 67.3921 703.885 63.5186C703.885 59.5759 704.922 55.979 706.997 52.728C709.142 49.4078 712.358 46.7794 716.647 44.8426C721.004 42.8367 726.503 41.8337 733.144 41.8337C737.501 41.8337 741.825 42.387 746.113 43.4938C750.402 44.6005 754.137 46.1914 757.319 48.2665L753.065 58.7458C749.814 56.809 746.459 55.3911 743 54.4918C739.542 53.5235 736.222 53.0393 733.04 53.0393C729.305 53.0393 726.261 53.4889 723.909 54.3881C721.627 55.2873 719.932 56.4632 718.825 57.9158C717.788 59.3683 717.269 61.0284 717.269 62.896C717.269 65.1095 718.03 66.9079 719.552 68.2913C721.143 69.6055 723.183 70.6431 725.673 71.404C728.233 72.1648 731.069 72.9257 734.181 73.6866C737.294 74.3783 740.372 75.1737 743.415 76.073C746.528 76.9722 749.33 78.1481 751.82 79.6006C754.379 81.0532 756.419 83.0246 757.941 85.5147C759.532 88.0048 760.328 91.1521 760.328 94.9564C760.328 98.83 759.255 102.427 757.111 105.747C755.036 108.998 751.82 111.626 747.462 113.632C743.104 115.569 737.605 116.538 730.965 116.538ZM797.359 116.226C791.687 116.226 786.637 115.016 782.21 112.595C777.783 110.105 774.29 106.715 771.731 102.427C769.172 98.1383 767.892 93.2618 767.892 87.7973C767.892 82.2637 769.172 77.3872 771.731 73.1678C774.29 68.8793 777.783 65.5245 782.21 63.1035C786.637 60.6826 791.687 59.4721 797.359 59.4721C803.1 59.4721 808.184 60.6826 812.611 63.1035C817.107 65.5245 820.6 68.8447 823.09 73.0641C825.649 77.2834 826.929 82.1945 826.929 87.7973C826.929 93.2618 825.649 98.1383 823.09 102.427C820.6 106.715 817.107 110.105 812.611 112.595C808.184 115.016 803.1 116.226 797.359 116.226ZM797.359 105.124C800.54 105.124 803.376 104.433 805.866 103.049C808.357 101.666 810.293 99.66 811.677 97.0315C813.129 94.4031 813.856 91.325 813.856 87.7973C813.856 84.2005 813.129 81.1224 811.677 78.5631C810.293 75.9346 808.357 73.9287 805.866 72.5453C803.376 71.1619 800.575 70.4702 797.462 70.4702C794.28 70.4702 791.444 71.1619 788.954 72.5453C786.533 73.9287 784.597 75.9346 783.144 78.5631C781.691 81.1224 780.965 84.2005 780.965 87.7973C780.965 91.325 781.691 94.4031 783.144 97.0315C784.597 99.66 786.533 101.666 788.954 103.049C791.444 104.433 794.246 105.124 797.359 105.124ZM841.095 115.5V56.982C841.095 51.1717 842.789 46.5373 846.179 43.0787C849.637 39.5511 854.548 37.7872 860.912 37.7872C863.195 37.7872 865.339 38.0293 867.345 38.5135C869.42 38.9977 871.149 39.7586 872.533 40.7961L869.005 50.5491C868.036 49.7883 866.93 49.2349 865.685 48.889C864.44 48.474 863.16 48.2665 861.846 48.2665C859.148 48.2665 857.108 49.0274 855.724 50.5491C854.341 52.0017 853.649 54.2152 853.649 57.1895V63.4148L854.064 69.2251V115.5H841.095ZM831.964 70.8852V60.5097H868.901V70.8852H831.964ZM890.888 115.5L870.551 60.0946H882.795L900.226 108.963H894.415L912.676 60.0946H923.57L941.313 108.963H935.606L953.556 60.0946H965.073L944.633 115.5H932.182L915.996 72.234H919.835L903.338 115.5H890.888ZM1006.4 115.5V104.294L1005.68 101.908V82.2983C1005.68 78.4939 1004.54 75.5542 1002.25 73.4791C999.97 71.3348 996.512 70.2627 991.877 70.2627C988.765 70.2627 985.686 70.7468 982.643 71.7152C979.669 72.6836 977.144 74.0324 975.069 75.7617L969.985 66.32C972.959 64.0373 976.487 62.3427 980.568 61.2359C984.718 60.06 989.007 59.4721 993.433 59.4721C1001.46 59.4721 1007.65 61.4089 1012.01 65.2824C1016.43 69.0868 1018.65 75.0008 1018.65 83.0246V115.5H1006.4ZM988.972 116.226C984.822 116.226 981.19 115.535 978.078 114.151C974.965 112.699 972.544 110.727 970.815 108.237C969.155 105.678 968.325 102.807 968.325 99.6254C968.325 96.5128 969.051 93.7114 970.504 91.2212C972.025 88.7311 974.481 86.7598 977.87 85.3072C981.26 83.8546 985.756 83.1283 991.358 83.1283H1007.44V91.74H992.292C987.865 91.74 984.891 92.4663 983.369 93.9189C981.847 95.3023 981.087 97.0315 981.087 99.1067C981.087 101.458 982.02 103.326 983.888 104.709C985.756 106.093 988.349 106.785 991.67 106.785C994.851 106.785 997.687 106.058 1000.18 104.606C1002.74 103.153 1004.57 101.009 1005.68 98.1729L1007.86 105.955C1006.61 109.206 1004.36 111.73 1001.11 113.529C997.93 115.327 993.883 116.226 988.972 116.226ZM1035.29 115.5V60.0946H1047.64V75.3467L1046.18 70.8852C1047.85 67.15 1050.44 64.314 1053.97 62.3772C1057.56 60.4405 1062.02 59.4721 1067.35 59.4721V71.819C1066.8 71.6806 1066.28 71.6115 1065.79 71.6115C1065.31 71.5423 1064.83 71.5077 1064.34 71.5077C1059.43 71.5077 1055.52 72.9603 1052.62 75.8654C1049.71 78.7014 1048.26 82.9554 1048.26 88.6274V115.5H1035.29ZM1103.89 116.226C1097.73 116.226 1092.34 115.016 1087.7 112.595C1083.14 110.105 1079.58 106.715 1077.02 102.427C1074.53 98.1383 1073.28 93.2618 1073.28 87.7973C1073.28 82.2637 1074.49 77.3872 1076.91 73.1678C1079.4 68.8793 1082.79 65.5245 1087.08 63.1035C1091.44 60.6826 1096.38 59.4721 1101.92 59.4721C1107.31 59.4721 1112.12 60.648 1116.34 62.9998C1120.56 65.3516 1123.88 68.6717 1126.3 72.9603C1128.72 77.2489 1129.93 82.2983 1129.93 88.1086C1129.93 88.6619 1129.9 89.2845 1129.83 89.9762C1129.83 90.6679 1129.79 91.325 1129.72 91.9475H1083.55V83.3358H1122.88L1117.79 86.0335C1117.86 82.8516 1117.2 80.0502 1115.82 77.6293C1114.44 75.2083 1112.54 73.3061 1110.11 71.9227C1107.76 70.5393 1105.03 69.8476 1101.92 69.8476C1098.74 69.8476 1095.93 70.5393 1093.51 71.9227C1091.16 73.3061 1089.29 75.2429 1087.91 77.733C1086.6 80.154 1085.94 83.0246 1085.94 86.3447V88.4198C1085.94 91.74 1086.7 94.6798 1088.22 97.2391C1089.74 99.7984 1091.89 101.77 1094.65 103.153C1097.42 104.537 1100.6 105.228 1104.2 105.228C1107.31 105.228 1110.11 104.744 1112.6 103.776C1115.09 102.807 1117.31 101.286 1119.24 99.2104L1126.2 107.2C1123.71 110.105 1120.56 112.353 1116.75 113.944C1113.02 115.465 1108.73 116.226 1103.89 116.226Z" fill="white"/>
</g>
<defs>
<clipPath id="clip0_243_36">
<rect width="1134.38" height="156.727" fill="white" transform="translate(0 0.136475)"/>
</clipPath>
</defs>
</svg>
