<svg width="379" height="213" viewBox="0 0 379 213" fill="none" xmlns="http://www.w3.org/2000/svg">
<rect width="378.808" height="213" fill="#EA2845"/>
<path fill-rule="evenodd" clip-rule="evenodd" d="M131.166 64.8255C130.572 64.8255 130.009 64.9566 129.508 65.134C130.588 65.8591 131.189 66.8155 131.49 67.9107C131.513 68.065 131.552 68.1652 131.567 68.3118C131.583 68.4583 131.613 68.5663 131.613 68.6974C131.691 70.5717 131.128 70.8031 130.719 71.9137C130.429 72.5847 130.305 73.3155 130.357 74.0446C130.41 74.7736 130.637 75.4792 131.02 76.1019C131.088 76.2672 131.173 76.4249 131.274 76.5723C130.464 71.1887 134.953 70.3788 135.786 68.7051C135.848 67.1625 134.629 66.2601 133.681 65.5737C132.928 65.0991 132.056 64.8477 131.166 64.8487V64.8255ZM137.93 66.0364C137.853 66.5224 137.907 66.399 137.884 66.6535L137.838 67.2088L137.684 67.7179C137.637 67.8906 137.58 68.0606 137.514 68.2269L137.282 68.7128C137.221 68.79 137.174 68.8825 137.113 68.9674L136.982 69.1602L136.673 69.5844C136.542 69.7155 136.442 69.8621 136.288 69.9701C136.133 70.078 136.033 70.2246 135.886 70.3326C135.439 70.6719 134.93 70.9265 134.46 71.2581C134.305 71.3661 134.151 71.4509 134.035 71.5666C133.92 71.6823 133.758 71.7826 133.634 71.906C133.511 72.0294 133.38 72.1605 133.249 72.3071C133.117 72.4536 133.017 72.5847 132.94 72.7313L132.632 73.1786L132.4 73.6646L132.23 74.1505L132.076 74.6904C132.053 74.7675 132.053 74.8832 132.03 74.968C132.007 75.0529 132.007 75.1377 131.984 75.2226L131.961 75.7625C131.957 75.8914 131.965 76.0204 131.984 76.1481C131.984 76.3178 132.007 76.4875 132.045 76.688C132.084 76.8886 132.107 77.0274 132.153 77.1971L132.323 77.7061C132.369 77.8141 132.431 77.9221 132.477 78.0147L127.587 76.1173L125.119 75.4771L123.777 75.1686C122.497 74.9145 121.204 74.724 119.905 74.5978C118.604 74.4544 117.296 74.3823 115.987 74.3819L113.21 74.4898C111.905 74.5836 110.605 74.7407 109.315 74.9603L108.359 75.13L106.446 75.5542L105.49 75.8088L104.564 76.2098L103.87 76.5183L103.176 76.8577C103.114 76.8809 103.068 76.904 103.022 76.9194L102.358 77.2588C102.204 77.3205 102.05 77.4131 101.934 77.4748C101.872 77.521 101.78 77.5519 101.741 77.5827L101.186 77.8913C100.993 77.9992 100.823 78.1072 100.677 78.1998L100.253 78.5083L99.7898 78.8477L99.4273 79.1562C99.1959 79.3259 99.0879 79.4338 98.98 79.5187L98.5172 79.966L98.093 80.3671L97.7305 80.7528C97.6842 80.799 97.6225 80.8299 97.5762 80.8839C97.4682 81.015 97.3448 81.1384 97.2137 81.2695L96.6429 81.8866L95.486 82.9895C95.1099 83.325 94.7132 83.6367 94.2982 83.9228L93.0178 84.7326C92.5831 84.9715 92.135 85.1853 91.6758 85.3728C91.2284 85.5656 90.7502 85.7353 90.2875 85.8819C89.3928 86.0747 88.4826 86.4372 87.6882 86.4989C87.5185 86.4989 87.3257 86.5452 87.1483 86.5606L86.6084 86.6917L86.0993 86.8846C85.9296 86.9463 85.76 87.0388 85.5903 87.1159C85.4206 87.1931 85.2818 87.3088 85.1275 87.4245C84.9766 87.5337 84.8347 87.6549 84.7033 87.787C84.549 87.895 84.3948 88.0415 84.2791 88.1726L83.9166 88.5968C83.8086 88.7665 83.6852 88.9054 83.608 89.0828C83.5309 89.2601 83.3921 89.3913 83.2995 89.5687L83.0681 90.124L82.8753 90.6793L82.7673 91.1884C82.7056 91.4429 82.7056 91.6974 82.6902 91.8286C82.6748 91.9597 82.6439 92.1062 82.6439 92.2528C82.6439 92.3299 82.6439 92.4456 82.6671 92.5304C82.6902 92.6847 82.7133 92.8081 82.7442 92.9315L82.8984 93.3172C82.9602 93.4714 83.0527 93.5948 83.1298 93.7182L83.4075 94.1039L83.77 94.4432C83.9011 94.5744 84.0245 94.6746 84.1711 94.7826C84.6801 95.23 84.8113 95.3765 85.4669 95.7082C85.5748 95.7699 85.6828 95.8162 85.8062 95.8779C85.9142 96.1864 85.9605 96.3406 85.9991 96.518C86.0376 96.6954 86.107 96.8805 86.1687 97.0271L86.3384 97.4127L86.6469 97.9835L86.9555 98.4308L87.318 98.8319C87.4491 98.963 87.5725 99.0633 87.719 99.1944L88.1433 99.5029C88.2924 99.608 88.4497 99.7009 88.6137 99.7806C88.768 99.8577 88.9223 99.9503 89.0997 100.012C89.2308 100.074 89.3773 100.12 89.5239 100.166C89.6704 100.213 89.8015 100.243 89.8864 100.274C89.8247 101.431 89.8093 102.588 89.9635 102.897C90.1563 103.321 91.0896 102.025 92.0306 100.536C91.8995 102.079 91.8146 103.73 92.0306 104.239C92.2465 104.748 93.5423 103.113 94.653 101.277C109.74 97.7907 123.499 108.219 124.965 122.935C124.687 120.636 121.857 119.364 120.569 119.68C119.928 121.253 118.849 123.274 117.098 124.539C117.249 123.117 117.176 121.681 116.882 120.282C116.419 122.241 115.493 124.061 114.244 125.642C113.269 125.708 112.294 125.533 111.403 125.132C110.512 124.732 109.734 124.117 109.138 123.344C109.061 123.282 109.03 123.151 108.968 123.066L108.745 122.542C108.683 122.387 108.637 122.233 108.613 122.094C108.59 121.955 108.59 121.786 108.59 121.631V121.323C108.613 121.169 108.652 121.014 108.698 120.876L108.853 120.428C108.93 120.274 109.007 120.12 109.107 119.981C109.47 118.963 109.47 118.13 108.799 117.644C108.667 117.567 108.544 117.49 108.397 117.428C108.32 117.405 108.205 117.366 108.12 117.351L107.95 117.289L107.503 117.181C107.357 117.14 107.207 117.119 107.055 117.119C106.9 117.093 106.743 117.078 106.585 117.073C106.477 117.073 106.369 117.096 106.276 117.096C106.107 117.096 105.968 117.119 105.814 117.158L105.366 117.235L104.919 117.389L104.495 117.582L104.094 117.798C99.1342 121.038 102.088 128.596 105.482 130.802C104.202 131.033 102.906 131.311 102.551 131.589C103.423 132.183 104.379 132.653 105.382 133.131L108.829 134.15C110.59 134.527 112.393 134.662 114.19 134.551C123.615 133.887 131.344 126.722 132.747 117.274L132.878 117.829L133.071 119.017C133.117 119.233 133.133 119.418 133.148 119.587L133.195 120.228L133.241 120.922V121.261C133.241 121.369 133.264 121.493 133.264 121.601C133.264 121.709 133.241 121.855 133.241 121.986V122.295C133.241 122.449 133.218 122.572 133.218 122.719C133.218 122.796 133.218 122.889 133.195 122.997L133.171 123.459C133.148 123.521 133.148 123.591 133.148 123.652L133.087 124.138C133.087 124.2 133.087 124.269 133.063 124.331L132.986 124.948V124.987L132.855 125.58L132.724 126.221L132.385 127.532L132.169 128.211L131.706 129.445L131.451 130.062L131.143 130.656C131.12 130.717 131.097 130.764 131.081 130.81C129.663 133.65 127.6 136.12 125.057 138.021C124.888 138.129 124.718 138.253 124.548 138.384C124.502 138.43 124.44 138.446 124.394 138.492L123.931 138.8L123.993 138.932H124.016L124.911 138.8H124.934L126.592 138.492C126.747 138.469 126.901 138.43 127.055 138.384L127.364 138.322L127.811 138.245L128.197 138.137C130.305 137.623 132.369 136.939 134.367 136.093C130.948 140.752 126.402 144.465 121.155 146.884C123.611 146.721 126.044 146.299 128.413 145.626C136.989 143.097 144.201 137.327 148.52 129.56C147.649 134.473 145.69 139.155 142.797 143.243C144.864 141.878 146.754 140.312 148.482 138.523C153.248 133.54 156.38 127.223 157.429 120.436C158.154 123.799 158.354 127.27 158.046 130.694C173.41 109.268 159.326 87.0542 153.418 81.2001C153.341 81.3544 153.31 81.6012 153.295 81.8634L153.079 83.2903L152.716 84.6941L152.207 86.0593L151.567 87.355L150.796 88.566L149.924 89.7229C149.615 90.1086 149.261 90.4479 148.921 90.7873L148.304 91.3272L147.818 91.7514C147.44 92.053 147.043 92.3312 146.631 92.5844L145.373 93.3094L144.031 93.9033C143.579 94.0747 143.118 94.224 142.651 94.3507L141.224 94.6592C140.738 94.7363 140.244 94.7903 139.774 94.8289L138.756 94.8752C138.27 94.8752 137.776 94.8289 137.306 94.798C136.818 94.762 136.334 94.6924 135.856 94.5898C135.37 94.5127 134.899 94.3738 134.429 94.2273H134.406L135.809 94.0576L137.236 93.7491L138.625 93.3017C139.087 93.132 139.55 92.9161 139.967 92.7078C140.405 92.495 140.832 92.2607 141.247 92.006L142.435 91.2347C142.817 90.9387 143.18 90.6193 143.522 90.2783C143.878 89.9524 144.213 89.6047 144.525 89.237L145.42 88.0801C145.466 88.0184 145.497 87.9258 145.551 87.8641L146.168 86.846L146.808 85.5502L147.317 84.185C147.471 83.7377 147.572 83.2595 147.68 82.7967L147.896 81.3698L147.973 79.9198L147.934 78.9017L147.764 77.4748L147.456 76.0479L146.993 74.6827C146.823 74.2353 146.607 73.788 146.399 73.3715L145.674 72.1143L144.903 70.9419L143.923 69.8621L143.368 69.3222L140.414 67.2397C140.26 67.1625 140.136 67.0854 139.99 67.0237C139.296 66.5764 138.625 66.345 137.969 66.129L137.93 66.0364Z" fill="white"/>
<path d="M180.521 120.274C181.015 120.039 181.536 119.866 182.072 119.757C183.267 119.564 183.946 119.402 184.139 119.271C184.463 119.078 184.679 118.808 184.787 118.562C184.918 118.099 184.979 117.173 184.979 115.685V112.869L185.01 110.571L184.91 107.139V105.11C184.91 103.753 184.81 102.619 184.586 101.778C184.524 101.454 184.231 101.13 183.776 100.806C183.159 100.344 182.234 99.9349 180.706 99.5107L180.676 97.9681L181.416 97.8138C181.647 97.783 182.519 97.5516 184.038 97.1659L186.337 96.2635L186.877 95.9704C187.153 95.7356 187.444 95.5191 187.748 95.3225C188.62 94.6357 189.402 93.8429 190.078 92.9624L191.79 92.8313L191.728 96.4872C191.697 96.842 191.697 97.1351 191.697 97.3588L191.728 98.8474C193.541 97.3048 195.161 96.2249 196.649 95.6079C198.376 94.8453 200.238 94.4387 202.125 94.4124C204.026 94.3741 205.895 94.9031 207.494 95.9319C209.005 96.9345 210.039 98.0915 210.579 99.4027C211.119 100.714 211.288 103.413 211.288 107.393L211.157 118.006C211.15 118.43 211.24 118.849 211.419 119.233C211.992 119.495 212.605 119.659 213.232 119.719L214.821 120.012C215.023 120.318 215.125 120.679 215.114 121.045L215.083 122.11L208.712 121.647L206.838 121.709H205.349L201.046 122.032H199.943C199.912 121.739 199.912 121.547 199.912 121.385L199.973 120.12C200.267 120.058 201.038 119.965 202.241 119.796C202.565 119.765 202.92 119.665 203.344 119.564C203.768 119.41 204.023 119.21 204.084 119.048C204.239 118.662 204.347 117.983 204.347 116.942L204.285 112.738L204.316 108.982C204.316 104.385 204.054 101.539 203.545 100.444C202.773 98.7934 201.477 97.9758 199.827 97.9758C198.52 98.0064 197.237 98.3279 196.071 98.9168C194.587 99.6426 193.224 100.592 192.029 101.732L191.967 102.272L192.029 104.308L191.998 106.468L192.129 111.674L192.068 112.484C192.068 116.009 192.199 118.014 192.492 118.469C192.785 118.924 193.849 119.41 195.731 119.958L195.832 120.768C195.832 121.03 195.731 121.415 195.6 121.963L193.888 121.994C193.173 121.972 192.459 121.908 191.751 121.801L188.188 121.77L180.683 122.002C180.594 121.787 180.549 121.556 180.552 121.323L180.583 120.289L180.521 120.274ZM218.731 104.802C219.31 102.951 219.796 101.732 220.251 101.146C221.446 99.3718 222.742 98.0606 224.107 96.9808C225.472 95.901 226.73 95.3302 227.825 95.0063C228.956 94.6414 230.131 94.4338 231.319 94.3893C232.973 94.3444 234.626 94.5077 236.24 94.8752C237.371 95.1139 238.446 95.564 239.41 96.2018C240.474 96.9375 241.45 97.7942 242.318 98.7548C243.079 99.6711 243.681 100.709 244.099 101.825C244.616 103.178 244.89 104.611 244.909 106.059L241.284 105.997C239.094 105.947 236.906 105.849 234.72 105.704L232.129 105.573L228.635 105.604H225.82L225.758 106.375C225.758 107.532 225.912 108.735 226.182 110.031C226.452 111.327 226.892 112.391 227.447 113.363C227.996 114.303 228.709 115.136 229.553 115.824C230.324 116.533 231.265 117.019 232.144 117.343L234.018 117.96L237.381 117.806C238.308 117.616 239.217 117.345 240.096 116.996C241.11 116.511 242.074 115.927 242.973 115.253L244.948 116.795C243.043 118.862 241.029 120.42 238.993 121.423C236.957 122.426 234.659 122.811 232.052 122.811C230.339 122.811 228.943 122.68 227.848 122.349C226.451 121.984 225.126 121.384 223.93 120.575C222.759 119.742 221.719 118.738 220.845 117.598C219.919 116.441 219.356 115.168 218.94 113.911C218.423 112.26 218.13 110.934 218.13 109.962C218.113 108.246 218.268 106.533 218.593 104.848L218.731 104.802ZM237.628 103.413C237.597 102.179 237.366 101.053 236.918 99.9195C236.471 98.7856 235.762 97.9758 234.782 97.3742C233.936 96.7846 232.936 96.4573 231.905 96.4332C230.362 96.4332 229.152 97.0811 227.956 98.3383C226.761 99.5955 226.143 101.423 225.982 103.545L233.386 103.575L235.391 103.475L236.749 103.375L237.62 103.406L237.628 103.413ZM249.969 112.839C250.438 112.732 250.915 112.668 251.396 112.646L252.074 112.677L252.368 113.001L254.697 116.757C255.437 117.628 256.185 118.346 257.011 118.893C257.497 119.217 258.276 119.603 259.34 119.958C260.078 120.219 260.856 120.35 261.638 120.343C262.926 120.376 264.178 119.912 265.132 119.048C266.104 118.145 266.675 117.196 266.675 116.171C266.675 115.492 266.482 114.906 266.135 114.428C265.788 113.949 265.032 113.456 263.937 112.885C263.397 112.654 262.032 112.268 259.826 111.728L256.062 110.664C255.067 110.292 254.147 109.743 253.347 109.044C252.588 108.389 251.971 107.586 251.535 106.684C250.995 105.45 250.763 104.385 250.763 103.599C250.763 101.948 251.025 100.621 251.473 99.5569C251.965 98.5055 252.656 97.5598 253.509 96.7726C254.126 96.1555 255.052 95.6156 256.324 95.122C257.624 94.6257 259.005 94.3746 260.397 94.3816C262.218 94.3571 264.038 94.4991 265.834 94.8058C267.204 95.0371 268.534 95.463 269.783 96.0707C269.938 96.5566 270.107 97.7213 270.362 99.503L270.717 102.704C270.717 102.858 270.686 103.028 270.616 103.19C270.154 103.339 269.675 103.427 269.189 103.452C268.997 103.452 268.673 103.421 268.248 103.39C267.972 102.949 267.715 102.496 267.477 102.033C266.444 100.089 265.372 98.7317 264.276 97.9604C263.181 97.1891 261.947 96.7649 260.42 96.7649C258.893 96.7649 257.666 97.2276 256.664 98.0606C256.297 98.3817 256.007 98.7815 255.816 99.2303C255.625 99.679 255.538 100.165 255.561 100.652C255.561 101.362 255.946 102.079 256.718 102.812C257.489 103.545 258.785 104.138 260.667 104.524C263.52 105.141 265.618 105.789 266.945 106.398C268.889 107.301 270.277 108.404 271.056 109.638C271.835 110.872 272.252 112.291 272.252 113.911C272.252 116.433 271.28 118.539 269.375 120.22C267.469 121.901 264.747 122.711 261.091 122.711C259.848 122.652 258.608 122.544 257.373 122.387C256.471 122.287 255.399 122.063 254.172 121.739C253.362 121.461 252.564 121.147 251.781 120.798C251.579 120.681 251.403 120.524 251.265 120.336C251.203 120.143 251.033 119.233 250.84 117.621L250.3 112.862L249.969 112.839ZM276.625 97.3048C279.17 96.2404 281.021 95.1683 282.155 94.2196C283.289 93.2709 284.515 91.4661 285.811 89.129H287.662C287.856 89.703 287.955 90.3048 287.955 90.9107L287.924 93.564L287.824 95.4691L287.855 96.2095L288.595 96.2404L291.634 96.1093L294.064 96.0476C294.192 96.5551 294.267 97.0747 294.287 97.5979C294.287 98.1146 294.187 98.7008 294.025 99.341C293.489 99.4209 292.948 99.4647 292.405 99.4721C292.251 99.4721 291.889 99.4721 291.372 99.4104H289.69L289.104 99.3795L287.562 99.4413L287.5 111.782L287.631 116.279C287.769 116.897 288.034 117.481 288.41 117.991C288.927 118.23 289.491 118.351 290.061 118.346C290.639 118.346 291.063 118.284 291.356 118.191C291.65 118.099 292.128 117.767 292.783 117.25C292.915 117.119 293.138 116.988 293.4 116.788C293.884 117.138 294.32 117.55 294.696 118.014L294.827 118.4C294.031 119.619 292.913 120.594 291.596 121.215C290.238 121.894 288.78 122.218 287.23 122.218C285.194 122.218 283.574 121.57 282.309 120.312C281.044 119.055 280.435 117.042 280.435 114.358L280.566 108.666V99.4027L279.563 99.3718L277.203 99.4027L276.779 99.3024C276.659 99.1474 276.592 98.9584 276.586 98.7625L276.648 97.2199L276.625 97.3048Z" fill="white"/>
<path d="M221.784 186H220.47V174.785H221.784V186ZM228.744 179.29C228.52 179.118 228.197 179.032 227.775 179.032C227.227 179.032 226.768 179.29 226.398 179.806C226.033 180.322 225.851 181.026 225.851 181.918V186H224.568V177.992H225.851V179.642H225.882C226.065 179.079 226.343 178.641 226.719 178.328C227.094 178.01 227.514 177.851 227.978 177.851C228.312 177.851 228.567 177.887 228.744 177.96V179.29ZM240.264 186H238.981V184.749H238.95C238.392 185.708 237.571 186.188 236.487 186.188C235.689 186.188 235.063 185.977 234.61 185.554C234.161 185.132 233.937 184.571 233.937 183.873C233.937 182.376 234.818 181.506 236.581 181.261L238.981 180.924C238.981 179.564 238.431 178.883 237.331 178.883C236.367 178.883 235.496 179.212 234.719 179.869V178.555C235.507 178.054 236.414 177.804 237.441 177.804C239.323 177.804 240.264 178.8 240.264 180.792V186ZM238.981 181.949L237.05 182.215C236.455 182.298 236.007 182.447 235.705 182.661C235.402 182.869 235.251 183.242 235.251 183.779C235.251 184.17 235.389 184.491 235.666 184.741C235.947 184.986 236.32 185.108 236.784 185.108C237.42 185.108 237.944 184.887 238.356 184.444C238.773 183.995 238.981 183.43 238.981 182.747V181.949ZM253.512 182.317H247.858C247.879 183.208 248.118 183.896 248.577 184.381C249.036 184.866 249.667 185.108 250.47 185.108C251.372 185.108 252.201 184.811 252.957 184.217V185.421C252.253 185.932 251.322 186.188 250.165 186.188C249.033 186.188 248.145 185.825 247.498 185.101C246.852 184.371 246.528 183.346 246.528 182.027C246.528 180.781 246.88 179.767 247.584 178.985C248.293 178.198 249.172 177.804 250.22 177.804C251.268 177.804 252.078 178.143 252.652 178.821C253.225 179.499 253.512 180.44 253.512 181.644V182.317ZM252.198 181.229C252.193 180.489 252.013 179.913 251.659 179.501C251.309 179.089 250.822 178.883 250.196 178.883C249.591 178.883 249.078 179.1 248.655 179.532C248.233 179.965 247.972 180.531 247.873 181.229H252.198ZM254.974 185.711V184.334C255.673 184.85 256.442 185.108 257.282 185.108C258.408 185.108 258.971 184.733 258.971 183.982C258.971 183.769 258.921 183.589 258.822 183.443C258.728 183.291 258.598 183.159 258.431 183.044C258.27 182.929 258.077 182.827 257.852 182.739C257.633 182.645 257.396 182.549 257.141 182.449C256.786 182.309 256.473 182.168 256.202 182.027C255.936 181.881 255.712 181.72 255.53 181.542C255.352 181.36 255.217 181.154 255.123 180.924C255.034 180.695 254.99 180.427 254.99 180.119C254.99 179.744 255.076 179.413 255.248 179.126C255.42 178.834 255.65 178.591 255.936 178.398C256.223 178.2 256.549 178.052 256.914 177.953C257.284 177.854 257.665 177.804 258.056 177.804C258.749 177.804 259.37 177.924 259.917 178.164V179.462C259.328 179.076 258.65 178.883 257.884 178.883C257.644 178.883 257.427 178.912 257.235 178.969C257.042 179.021 256.875 179.097 256.734 179.196C256.599 179.295 256.492 179.415 256.413 179.556C256.34 179.691 256.304 179.843 256.304 180.009C256.304 180.218 256.34 180.393 256.413 180.533C256.492 180.674 256.604 180.799 256.75 180.909C256.896 181.018 257.073 181.117 257.282 181.206C257.49 181.295 257.727 181.391 257.993 181.495C258.348 181.631 258.666 181.772 258.947 181.918C259.229 182.058 259.469 182.22 259.667 182.403C259.865 182.58 260.016 182.786 260.12 183.02C260.23 183.255 260.285 183.534 260.285 183.857C260.285 184.253 260.196 184.598 260.019 184.889C259.847 185.181 259.615 185.424 259.323 185.617C259.031 185.81 258.694 185.953 258.314 186.047C257.933 186.141 257.534 186.188 257.117 186.188C256.294 186.188 255.579 186.029 254.974 185.711ZM265.978 185.922C265.676 186.089 265.277 186.172 264.781 186.172C263.379 186.172 262.678 185.39 262.678 183.826V179.087H261.301V177.992H262.678V176.037L263.96 175.622V177.992H265.978V179.087H263.96V183.599C263.96 184.136 264.051 184.519 264.234 184.749C264.416 184.978 264.719 185.093 265.141 185.093C265.464 185.093 265.743 185.004 265.978 184.827V185.922ZM273.423 186H272.141V184.749H272.109C271.551 185.708 270.73 186.188 269.646 186.188C268.848 186.188 268.222 185.977 267.769 185.554C267.32 185.132 267.096 184.571 267.096 183.873C267.096 182.376 267.977 181.506 269.74 181.261L272.141 180.924C272.141 179.564 271.59 178.883 270.49 178.883C269.526 178.883 268.655 179.212 267.878 179.869V178.555C268.666 178.054 269.573 177.804 270.6 177.804C272.482 177.804 273.423 178.8 273.423 180.792V186ZM272.141 181.949L270.209 182.215C269.614 182.298 269.166 182.447 268.864 182.661C268.561 182.869 268.41 183.242 268.41 183.779C268.41 184.17 268.548 184.491 268.825 184.741C269.106 184.986 269.479 185.108 269.943 185.108C270.579 185.108 271.103 184.887 271.515 184.444C271.932 183.995 272.141 183.43 272.141 182.747V181.949ZM282.675 186H281.392V184.639H281.361C280.767 185.672 279.849 186.188 278.608 186.188C277.602 186.188 276.796 185.831 276.192 185.116C275.592 184.397 275.292 183.419 275.292 182.184C275.292 180.859 275.626 179.798 276.293 179.001C276.961 178.203 277.85 177.804 278.96 177.804C280.06 177.804 280.86 178.237 281.361 179.102H281.392V174.144H282.675V186ZM281.392 182.379V181.198C281.392 180.552 281.178 180.004 280.751 179.556C280.323 179.108 279.781 178.883 279.124 178.883C278.342 178.883 277.727 179.17 277.279 179.744C276.83 180.317 276.606 181.11 276.606 182.121C276.606 183.044 276.82 183.774 277.247 184.311C277.68 184.843 278.259 185.108 278.983 185.108C279.698 185.108 280.276 184.85 280.72 184.334C281.168 183.818 281.392 183.166 281.392 182.379ZM285.928 175.958C285.699 175.958 285.503 175.88 285.342 175.724C285.18 175.567 285.099 175.369 285.099 175.129C285.099 174.89 285.18 174.692 285.342 174.535C285.503 174.373 285.699 174.293 285.928 174.293C286.163 174.293 286.361 174.373 286.522 174.535C286.689 174.692 286.773 174.89 286.773 175.129C286.773 175.359 286.689 175.554 286.522 175.716C286.361 175.878 286.163 175.958 285.928 175.958ZM286.554 186H285.271V177.992H286.554V186ZM288.665 185.711V184.334C289.364 184.85 290.133 185.108 290.972 185.108C292.099 185.108 292.662 184.733 292.662 183.982C292.662 183.769 292.612 183.589 292.513 183.443C292.419 183.291 292.289 183.159 292.122 183.044C291.96 182.929 291.767 182.827 291.543 182.739C291.324 182.645 291.087 182.549 290.832 182.449C290.477 182.309 290.164 182.168 289.893 182.027C289.627 181.881 289.403 181.72 289.221 181.542C289.043 181.36 288.908 181.154 288.814 180.924C288.725 180.695 288.681 180.427 288.681 180.119C288.681 179.744 288.767 179.413 288.939 179.126C289.111 178.834 289.34 178.591 289.627 178.398C289.914 178.2 290.24 178.052 290.605 177.953C290.975 177.854 291.356 177.804 291.747 177.804C292.44 177.804 293.06 177.924 293.608 178.164V179.462C293.019 179.076 292.341 178.883 291.575 178.883C291.335 178.883 291.118 178.912 290.925 178.969C290.733 179.021 290.566 179.097 290.425 179.196C290.289 179.295 290.182 179.415 290.104 179.556C290.031 179.691 289.995 179.843 289.995 180.009C289.995 180.218 290.031 180.393 290.104 180.533C290.182 180.674 290.295 180.799 290.441 180.909C290.587 181.018 290.764 181.117 290.972 181.206C291.181 181.295 291.418 181.391 291.684 181.495C292.039 181.631 292.357 181.772 292.638 181.918C292.92 182.058 293.16 182.22 293.358 182.403C293.556 182.58 293.707 182.786 293.811 183.02C293.921 183.255 293.975 183.534 293.975 183.857C293.975 184.253 293.887 184.598 293.71 184.889C293.538 185.181 293.305 185.424 293.014 185.617C292.722 185.81 292.385 185.953 292.005 186.047C291.624 186.141 291.225 186.188 290.808 186.188C289.984 186.188 289.27 186.029 288.665 185.711ZM299.669 185.922C299.366 186.089 298.968 186.172 298.472 186.172C297.07 186.172 296.369 185.39 296.369 183.826V179.087H294.992V177.992H296.369V176.037L297.651 175.622V177.992H299.669V179.087H297.651V183.599C297.651 184.136 297.742 184.519 297.925 184.749C298.107 184.978 298.41 185.093 298.832 185.093C299.155 185.093 299.434 185.004 299.669 184.827V185.922ZM302.038 175.958C301.809 175.958 301.614 175.88 301.452 175.724C301.29 175.567 301.209 175.369 301.209 175.129C301.209 174.89 301.29 174.692 301.452 174.535C301.614 174.373 301.809 174.293 302.038 174.293C302.273 174.293 302.471 174.373 302.633 174.535C302.8 174.692 302.883 174.89 302.883 175.129C302.883 175.359 302.8 175.554 302.633 175.716C302.471 175.878 302.273 175.958 302.038 175.958ZM302.664 186H301.381V177.992H302.664V186ZM310.719 185.632C310.104 186.003 309.374 186.188 308.529 186.188C307.388 186.188 306.465 185.818 305.761 185.077C305.062 184.332 304.713 183.367 304.713 182.184C304.713 180.865 305.091 179.806 305.847 179.008C306.603 178.206 307.612 177.804 308.874 177.804C309.577 177.804 310.198 177.934 310.735 178.195V179.509C310.141 179.092 309.504 178.883 308.827 178.883C308.008 178.883 307.336 179.178 306.809 179.767C306.288 180.351 306.027 181.12 306.027 182.074C306.027 183.013 306.272 183.753 306.762 184.295C307.257 184.837 307.919 185.108 308.748 185.108C309.447 185.108 310.104 184.876 310.719 184.412V185.632ZM318.391 186H317.109V184.749H317.077C316.519 185.708 315.698 186.188 314.614 186.188C313.816 186.188 313.191 185.977 312.737 185.554C312.289 185.132 312.064 184.571 312.064 183.873C312.064 182.376 312.945 181.506 314.708 181.261L317.109 180.924C317.109 179.564 316.559 178.883 315.458 178.883C314.494 178.883 313.623 179.212 312.846 179.869V178.555C313.634 178.054 314.541 177.804 315.568 177.804C317.45 177.804 318.391 178.8 318.391 180.792V186ZM317.109 181.949L315.177 182.215C314.583 182.298 314.134 182.447 313.832 182.661C313.529 182.869 313.378 183.242 313.378 183.779C313.378 184.17 313.516 184.491 313.793 184.741C314.074 184.986 314.447 185.108 314.911 185.108C315.547 185.108 316.071 184.887 316.483 184.444C316.9 183.995 317.109 183.43 317.109 182.747V181.949ZM320.323 185.711V184.334C321.021 184.85 321.79 185.108 322.63 185.108C323.756 185.108 324.319 184.733 324.319 183.982C324.319 183.769 324.27 183.589 324.171 183.443C324.077 183.291 323.946 183.159 323.78 183.044C323.618 182.929 323.425 182.827 323.201 182.739C322.982 182.645 322.745 182.549 322.489 182.449C322.135 182.309 321.822 182.168 321.551 182.027C321.285 181.881 321.061 181.72 320.878 181.542C320.701 181.36 320.565 181.154 320.471 180.924C320.383 180.695 320.338 180.427 320.338 180.119C320.338 179.744 320.425 179.413 320.597 179.126C320.769 178.834 320.998 178.591 321.285 178.398C321.572 178.2 321.897 178.052 322.262 177.953C322.632 177.854 323.013 177.804 323.404 177.804C324.098 177.804 324.718 177.924 325.265 178.164V179.462C324.676 179.076 323.998 178.883 323.232 178.883C322.992 178.883 322.776 178.912 322.583 178.969C322.39 179.021 322.223 179.097 322.082 179.196C321.947 179.295 321.84 179.415 321.762 179.556C321.689 179.691 321.652 179.843 321.652 180.009C321.652 180.218 321.689 180.393 321.762 180.533C321.84 180.674 321.952 180.799 322.098 180.909C322.244 181.018 322.421 181.117 322.63 181.206C322.838 181.295 323.076 181.391 323.342 181.495C323.696 181.631 324.014 181.772 324.296 181.918C324.577 182.058 324.817 182.22 325.015 182.403C325.213 182.58 325.364 182.786 325.469 183.02C325.578 183.255 325.633 183.534 325.633 183.857C325.633 184.253 325.544 184.598 325.367 184.889C325.195 185.181 324.963 185.424 324.671 185.617C324.379 185.81 324.043 185.953 323.662 186.047C323.282 186.141 322.883 186.188 322.466 186.188C321.642 186.188 320.928 186.029 320.323 185.711Z" fill="white"/>
<path d="M338.028 189.253L345.301 181.972L338.028 174.691L338.731 173.987L346.724 181.972L338.731 189.957L338.028 189.253Z" fill="white"/>
</svg>
