<svg width="1920" height="1080" viewBox="0 0 1920 1080" fill="none" xmlns="http://www.w3.org/2000/svg">
<g clip-path="url(#clip0_223_22)">
<path d="M-12 368.813C205.048 401.975 701.685 409.826 951.854 175.929C1264.56 -116.443 1216.51 -128.625 1559 -176" stroke="#ADFF45"/>
<path d="M-12 414.813C205.048 447.975 701.685 455.826 951.854 221.929C1264.56 -70.4428 1216.51 -82.625 1559 -130" stroke="#ADFF45"/>
<path d="M0 460.813C217.048 493.975 713.685 501.826 963.854 267.929C1276.56 -24.4428 1228.51 -36.625 1571 -84" stroke="#ADFF45"/>
<path d="M0 522.813C217.048 555.975 713.685 563.826 963.854 329.929C1276.56 37.5572 1228.51 25.375 1571 -22" stroke="#ADFF45"/>
<path d="M1135.49 1363C1102.77 1169.39 1127.77 760.058 1489.46 671.573C1941.57 560.968 1963.69 296.648 2097 211" stroke="#ADFF45"/>
<path d="M1187.49 1403C1154.77 1209.39 1179.77 800.058 1541.46 711.573C1993.57 600.968 2015.69 336.648 2149 251" stroke="#ADFF45"/>
<path d="M1247.49 1439C1214.77 1245.39 1239.77 836.058 1601.46 747.573C2053.57 636.968 2075.69 372.648 2209 287" stroke="#ADFF45"/>
<path d="M1312.49 1479C1279.77 1285.39 1304.77 876.058 1666.46 787.573C2118.57 676.968 2140.69 412.648 2274 327" stroke="#ADFF45"/>
<path d="M1381.49 1517C1348.77 1323.39 1373.77 914.058 1735.46 825.573C2187.57 714.968 2209.69 450.648 2343 365" stroke="#ADFF45"/>
<circle cx="1901.5" cy="393.5" r="548" stroke="#FF8845"/>
<circle cx="-208.5" cy="814.5" r="548" stroke="#FF8845"/>
<circle cx="1964.5" cy="381.5" r="548" stroke="#FF8845"/>
<circle cx="-145.5" cy="802.5" r="548" stroke="#FF8845"/>
<circle cx="2051.5" cy="357.5" r="548" stroke="#FF8845"/>
<circle cx="-58.5" cy="778.5" r="548" stroke="#FF8845"/>
<rect x="284.09" y="105.222" width="90" height="90" transform="rotate(26.2934 284.09 105.222)" stroke="#FF8845"/>
<rect x="128.798" y="797.774" width="90" height="90" transform="rotate(7.03589 128.798 797.774)" stroke="#ADFF45"/>
<rect x="488.371" y="69.7113" width="46.6382" height="46.6382" transform="rotate(26.2934 488.371 69.7113)" stroke="#ADFF45"/>
<rect x="1758.33" y="354.67" width="46.6382" height="46.6382" transform="rotate(26.2934 1758.33 354.67)" stroke="#ADFF45"/>
<rect x="1003.33" y="973.67" width="46.6382" height="46.6382" transform="rotate(26.2934 1003.33 973.67)" stroke="#FF8845"/>
<path d="M932.404 662.772L957.116 644.054M935.401 641.057L953.599 665.082" stroke="#ADFF45" stroke-width="3.44444"/>
<path d="M716.359 894.073L741.07 875.356M719.356 872.359L737.553 896.384" stroke="#FF8845" stroke-width="3.44444"/>
<path d="M159.359 644.073L184.07 625.356M162.356 622.359L180.553 646.384" stroke="#ADFF45" stroke-width="3.44444"/>
<path d="M1611.5 172.722L1628.65 167.255M1617.34 161.413L1622.66 178.087" stroke="#FF8845" stroke-width="2"/>
<path d="M1192.73 354.042L1209.88 348.575M1198.57 342.733L1203.89 359.407" stroke="#FF8845" stroke-width="2"/>
</g>
<defs>
<clipPath id="clip0_223_22">
<rect width="1920" height="1080" fill="white"/>
</clipPath>
</defs>
</svg>
