<svg width="153" height="44" viewBox="0 0 153 44" fill="none" xmlns="http://www.w3.org/2000/svg">
<g clip-path="url(#clip0_4_56)">
<path d="M6.58806 32.4945L9.44976 29.4533C9.60881 29.2837 9.85488 29.2281 10.0724 29.3108C10.8283 29.6011 12.1048 29.9592 13.6845 29.8195C15.1229 29.692 16.2295 29.2037 16.9133 28.8211C17.1322 28.6991 17.4054 28.733 17.5876 28.9066C18.5705 29.8439 19.5534 30.7799 20.5363 31.7173C20.8 31.9682 20.7647 32.3982 20.4629 32.6031C19.2543 33.4224 16.9894 34.6636 13.9088 34.886C10.6339 35.1234 8.08348 34.0911 6.74032 33.3925C6.40317 33.2175 6.32704 32.7699 6.58806 32.4945Z" fill="#444444"/>
<path d="M15.18 17.9041C14.5206 17.5459 13.7675 17.3425 12.9667 17.3425C10.4082 17.3425 8.32684 19.4193 8.32684 21.9722C8.32684 22.7712 8.53077 23.524 8.88967 24.1806C9.6768 25.6212 11.2089 26.6019 12.9667 26.6019C15.5253 26.6019 17.6066 24.5251 17.6066 21.9722C17.6053 20.2182 16.6237 18.6895 15.18 17.9041Z" fill="#444444"/>
<path fill-rule="evenodd" clip-rule="evenodd" d="M7.62668 15.9629C9.03373 14.7163 10.8785 13.9512 12.8946 13.9336C14.3574 13.9214 15.7319 14.2998 16.9201 14.97C17.3741 15.2263 17.9451 15.1449 18.3135 14.776L20.6328 12.4618C20.9441 12.1511 20.8952 11.6357 20.5336 11.3847C15.4369 7.84698 8.47907 8.32854 4.01998 12.5445C1.37172 15.0473 0.00408737 18.4901 7.13071e-06 21.9708C-0.00271197 24.5984 0.77219 27.2476 2.36142 29.5292C2.6102 29.8874 3.1268 29.9294 3.43541 29.6215L5.75467 27.3073C6.12445 26.9397 6.20602 26.37 5.94908 25.9169C5.2775 24.7313 4.8982 23.3599 4.91044 21.9003C4.93219 19.5441 5.97899 17.4225 7.62668 15.9629Z" fill="#444444"/>
</g>
<path d="M37.224 16.328H41.338C42.3013 16.328 43.1683 16.4753 43.939 16.77C44.7097 17.0647 45.367 17.484 45.911 18.028C46.455 18.5607 46.8687 19.201 47.152 19.949C47.4467 20.697 47.594 21.5187 47.594 22.414C47.594 23.3207 47.4467 24.148 47.152 24.896C46.8687 25.644 46.455 26.2843 45.911 26.817C45.367 27.3497 44.7097 27.7633 43.939 28.058C43.1683 28.3527 42.3013 28.5 41.338 28.5H37.224V16.328ZM41.236 26.324C41.9047 26.324 42.494 26.2333 43.004 26.052C43.514 25.8593 43.939 25.593 44.279 25.253C44.619 24.913 44.874 24.505 45.044 24.029C45.214 23.5417 45.299 23.0033 45.299 22.414C45.299 21.8247 45.214 21.292 45.044 20.816C44.874 20.3287 44.619 19.915 44.279 19.575C43.939 19.235 43.514 18.9743 43.004 18.793C42.494 18.6003 41.9047 18.504 41.236 18.504H39.519V26.324H41.236ZM50.4118 18.963C50.2191 18.963 50.0321 18.929 49.8508 18.861C49.6808 18.7817 49.5278 18.6797 49.3918 18.555C49.2671 18.419 49.1651 18.266 49.0858 18.096C49.0178 17.926 48.9838 17.739 48.9838 17.535C48.9838 17.331 49.0178 17.144 49.0858 16.974C49.1651 16.804 49.2671 16.6567 49.3918 16.532C49.5278 16.396 49.6808 16.294 49.8508 16.226C50.0321 16.1467 50.2191 16.107 50.4118 16.107C50.8084 16.107 51.1484 16.2487 51.4318 16.532C51.7151 16.804 51.8568 17.1383 51.8568 17.535C51.8568 17.9317 51.7151 18.2717 51.4318 18.555C51.1484 18.827 50.8084 18.963 50.4118 18.963ZM49.3068 28.5V20.17H51.5338V28.5H49.3068ZM61.3752 26.494C60.9898 27.174 60.4685 27.7237 59.8112 28.143C59.1652 28.5623 58.3718 28.772 57.4312 28.772C56.7965 28.772 56.2072 28.6643 55.6632 28.449C55.1305 28.2223 54.6658 27.9107 54.2692 27.514C53.8725 27.1173 53.5608 26.6527 53.3342 26.12C53.1188 25.576 53.0112 24.981 53.0112 24.335C53.0112 23.7343 53.1188 23.1677 53.3342 22.635C53.5495 22.091 53.8498 21.6207 54.2352 21.224C54.6205 20.816 55.0738 20.493 55.5952 20.255C56.1278 20.017 56.7115 19.898 57.3462 19.898C58.0148 19.898 58.6098 20.0113 59.1312 20.238C59.6525 20.4533 60.0888 20.7593 60.4402 21.156C60.7915 21.5413 61.0578 22.0003 61.2392 22.533C61.4205 23.0657 61.5112 23.6437 61.5112 24.267C61.5112 24.3463 61.5112 24.4143 61.5112 24.471C61.4998 24.539 61.4942 24.6013 61.4942 24.658C61.4828 24.7147 61.4772 24.777 61.4772 24.845H55.2042C55.2495 25.185 55.3402 25.4797 55.4762 25.729C55.6235 25.967 55.7992 26.171 56.0032 26.341C56.2185 26.4997 56.4508 26.6187 56.7002 26.698C56.9495 26.766 57.2045 26.8 57.4652 26.8C57.9752 26.8 58.3945 26.6867 58.7232 26.46C59.0632 26.222 59.3295 25.9273 59.5222 25.576L61.3752 26.494ZM59.3522 23.264C59.3408 23.1167 59.2898 22.9523 59.1992 22.771C59.1198 22.5897 58.9952 22.4197 58.8252 22.261C58.6665 22.1023 58.4625 21.972 58.2132 21.87C57.9752 21.768 57.6862 21.717 57.3462 21.717C56.8702 21.717 56.4508 21.853 56.0882 22.125C55.7255 22.397 55.4705 22.7767 55.3232 23.264H59.3522ZM66.8585 32.444C66.2691 32.444 65.7421 32.3647 65.2775 32.206C64.8241 32.0587 64.4275 31.8603 64.0875 31.611C63.7475 31.373 63.4641 31.1067 63.2375 30.812C63.0108 30.5173 62.8465 30.2227 62.7445 29.928L64.8695 29.078C65.0281 29.52 65.2888 29.86 65.6515 30.098C66.0141 30.3473 66.4165 30.472 66.8585 30.472C67.5611 30.472 68.1165 30.251 68.5245 29.809C68.9325 29.3783 69.1365 28.772 69.1365 27.99V27.412H69.0005C68.7398 27.7747 68.3941 28.0637 67.9635 28.279C67.5441 28.483 67.0455 28.585 66.4675 28.585C65.9688 28.585 65.4815 28.483 65.0055 28.279C64.5408 28.075 64.1271 27.786 63.7645 27.412C63.4018 27.0267 63.1071 26.5677 62.8805 26.035C62.6538 25.5023 62.5405 24.9073 62.5405 24.25C62.5405 23.5927 62.6538 22.9977 62.8805 22.465C63.1071 21.921 63.4018 21.462 63.7645 21.088C64.1271 20.7027 64.5408 20.408 65.0055 20.204C65.4815 20 65.9688 19.898 66.4675 19.898C67.0455 19.898 67.5441 20.0057 67.9635 20.221C68.3941 20.425 68.7398 20.7083 69.0005 21.071H69.1365V20.17H71.2615V27.905C71.2615 28.6077 71.1538 29.2367 70.9385 29.792C70.7231 30.3587 70.4228 30.8347 70.0375 31.22C69.6521 31.6167 69.1875 31.917 68.6435 32.121C68.1108 32.3363 67.5158 32.444 66.8585 32.444ZM66.9435 26.579C67.2155 26.579 67.4818 26.528 67.7425 26.426C68.0145 26.324 68.2525 26.1767 68.4565 25.984C68.6605 25.78 68.8248 25.5363 68.9495 25.253C69.0741 24.9583 69.1365 24.624 69.1365 24.25C69.1365 23.876 69.0741 23.5417 68.9495 23.247C68.8248 22.9523 68.6605 22.7087 68.4565 22.516C68.2525 22.312 68.0145 22.159 67.7425 22.057C67.4818 21.955 67.2155 21.904 66.9435 21.904C66.6715 21.904 66.4051 21.955 66.1445 22.057C65.8838 22.159 65.6515 22.312 65.4475 22.516C65.2435 22.72 65.0791 22.9693 64.9545 23.264C64.8298 23.5473 64.7675 23.876 64.7675 24.25C64.7675 24.624 64.8298 24.9583 64.9545 25.253C65.0791 25.5363 65.2435 25.78 65.4475 25.984C65.6515 26.1767 65.8838 26.324 66.1445 26.426C66.4051 26.528 66.6715 26.579 66.9435 26.579ZM77.021 19.898C77.667 19.898 78.2563 20.0113 78.789 20.238C79.333 20.4533 79.7977 20.7593 80.183 21.156C80.5797 21.5413 80.8857 22.006 81.101 22.55C81.3277 23.094 81.441 23.689 81.441 24.335C81.441 24.981 81.3277 25.576 81.101 26.12C80.8857 26.664 80.5797 27.1343 80.183 27.531C79.7977 27.9163 79.333 28.2223 78.789 28.449C78.2563 28.6643 77.667 28.772 77.021 28.772C76.375 28.772 75.78 28.6643 75.236 28.449C74.7033 28.2223 74.2387 27.9163 73.842 27.531C73.4567 27.1343 73.1507 26.664 72.924 26.12C72.7087 25.576 72.601 24.981 72.601 24.335C72.601 23.689 72.7087 23.094 72.924 22.55C73.1507 22.006 73.4567 21.5413 73.842 21.156C74.2387 20.7593 74.7033 20.4533 75.236 20.238C75.78 20.0113 76.375 19.898 77.021 19.898ZM77.021 26.715C77.3043 26.715 77.5763 26.664 77.837 26.562C78.109 26.4487 78.347 26.29 78.551 26.086C78.755 25.882 78.9137 25.6327 79.027 25.338C79.1517 25.0433 79.214 24.709 79.214 24.335C79.214 23.961 79.1517 23.6267 79.027 23.332C78.9137 23.0373 78.755 22.788 78.551 22.584C78.347 22.38 78.109 22.227 77.837 22.125C77.5763 22.0117 77.3043 21.955 77.021 21.955C76.7263 21.955 76.4487 22.0117 76.188 22.125C75.9273 22.227 75.695 22.38 75.491 22.584C75.287 22.788 75.1227 23.0373 74.998 23.332C74.8847 23.6267 74.828 23.961 74.828 24.335C74.828 24.709 74.8847 25.0433 74.998 25.338C75.1227 25.6327 75.287 25.882 75.491 26.086C75.695 26.29 75.9273 26.4487 76.188 26.562C76.4487 26.664 76.7263 26.715 77.021 26.715Z" fill="#444444"/>
<path d="M97.5213 26.545C96.9206 27.2703 96.2123 27.8257 95.3963 28.211C94.5803 28.585 93.6679 28.772 92.6593 28.772C91.7526 28.772 90.9083 28.6077 90.1263 28.279C89.3556 27.9503 88.6869 27.5027 88.1203 26.936C87.5536 26.3693 87.1059 25.7007 86.7773 24.93C86.4486 24.148 86.2843 23.3093 86.2843 22.414C86.2843 21.5187 86.4486 20.6857 86.7773 19.915C87.1059 19.133 87.5536 18.4587 88.1203 17.892C88.6869 17.3253 89.3556 16.8777 90.1263 16.549C90.9083 16.2203 91.7526 16.056 92.6593 16.056C93.6339 16.056 94.4896 16.226 95.2263 16.566C95.9743 16.906 96.6373 17.399 97.2153 18.045L95.6003 19.609C95.2376 19.1897 94.8183 18.8553 94.3423 18.606C93.8776 18.3567 93.3223 18.232 92.6763 18.232C92.1096 18.232 91.5769 18.334 91.0783 18.538C90.5796 18.7307 90.1433 19.0083 89.7693 19.371C89.4066 19.7337 89.1176 20.1757 88.9023 20.697C88.6869 21.207 88.5793 21.7793 88.5793 22.414C88.5793 23.0487 88.6869 23.6267 88.9023 24.148C89.1176 24.658 89.4066 25.0943 89.7693 25.457C90.1433 25.8197 90.5796 26.103 91.0783 26.307C91.5769 26.4997 92.1096 26.596 92.6763 26.596C93.3563 26.596 93.9569 26.46 94.4783 26.188C95.0109 25.9047 95.4813 25.508 95.8893 24.998L97.5213 26.545ZM103.894 27.616H103.758C103.497 27.9333 103.18 28.2053 102.806 28.432C102.443 28.6587 101.973 28.772 101.395 28.772C100.964 28.772 100.556 28.6983 100.171 28.551C99.7966 28.415 99.468 28.2223 99.1846 27.973C98.9013 27.7237 98.6803 27.4233 98.5216 27.072C98.363 26.7207 98.2836 26.3353 98.2836 25.916C98.2836 25.4853 98.3686 25.1 98.5386 24.76C98.7086 24.4087 98.9466 24.1083 99.2526 23.859C99.5586 23.6097 99.9156 23.4227 100.324 23.298C100.743 23.162 101.196 23.094 101.684 23.094C102.228 23.094 102.675 23.1393 103.027 23.23C103.378 23.3093 103.667 23.3943 103.894 23.485V23.23C103.894 22.788 103.718 22.4253 103.367 22.142C103.015 21.8473 102.579 21.7 102.058 21.7C101.287 21.7 100.635 22.023 100.103 22.669L98.4876 21.564C99.3716 20.4533 100.579 19.898 102.109 19.898C103.401 19.898 104.387 20.204 105.067 20.816C105.747 21.4167 106.087 22.312 106.087 23.502V28.5H103.894V27.616ZM103.894 25.117C103.633 24.9923 103.361 24.896 103.078 24.828C102.806 24.7487 102.505 24.709 102.177 24.709C101.644 24.709 101.23 24.828 100.936 25.066C100.652 25.2927 100.511 25.576 100.511 25.916C100.511 26.256 100.647 26.528 100.919 26.732C101.202 26.936 101.525 27.038 101.888 27.038C102.182 27.038 102.454 26.987 102.704 26.885C102.953 26.7717 103.163 26.63 103.333 26.46C103.514 26.2787 103.65 26.0747 103.741 25.848C103.843 25.61 103.894 25.3663 103.894 25.117ZM107.857 20.17H109.948V21.326H110.084C110.186 21.122 110.322 20.935 110.492 20.765C110.662 20.595 110.849 20.4477 111.053 20.323C111.269 20.1983 111.495 20.102 111.733 20.034C111.983 19.966 112.226 19.932 112.464 19.932C112.759 19.932 113.008 19.9603 113.212 20.017C113.428 20.0737 113.609 20.1473 113.756 20.238L113.161 22.261C113.025 22.193 112.872 22.142 112.702 22.108C112.544 22.0627 112.345 22.04 112.107 22.04C111.801 22.04 111.524 22.1023 111.274 22.227C111.025 22.3403 110.81 22.5047 110.628 22.72C110.458 22.9353 110.322 23.1903 110.22 23.485C110.13 23.7683 110.084 24.08 110.084 24.42V28.5H107.857V20.17ZM114.863 16.328H117.09V19.983L116.954 21.173H117.09C117.294 20.8217 117.611 20.5213 118.042 20.272C118.473 20.0227 119.005 19.898 119.64 19.898C120.173 19.898 120.677 20.0113 121.153 20.238C121.64 20.4533 122.065 20.7593 122.428 21.156C122.802 21.5413 123.097 22.006 123.312 22.55C123.527 23.094 123.635 23.689 123.635 24.335C123.635 24.981 123.527 25.576 123.312 26.12C123.097 26.664 122.802 27.1343 122.428 27.531C122.065 27.9163 121.64 28.2223 121.153 28.449C120.677 28.6643 120.173 28.772 119.64 28.772C119.005 28.772 118.473 28.6473 118.042 28.398C117.611 28.1487 117.294 27.8483 117.09 27.497H116.954V28.5H114.863V16.328ZM119.181 26.715C119.476 26.715 119.753 26.6583 120.014 26.545C120.286 26.4317 120.524 26.273 120.728 26.069C120.932 25.865 121.096 25.6157 121.221 25.321C121.346 25.0263 121.408 24.6977 121.408 24.335C121.408 23.9723 121.346 23.6437 121.221 23.349C121.096 23.0543 120.932 22.805 120.728 22.601C120.524 22.397 120.286 22.2383 120.014 22.125C119.753 22.0117 119.476 21.955 119.181 21.955C118.886 21.955 118.603 22.0117 118.331 22.125C118.07 22.227 117.838 22.38 117.634 22.584C117.43 22.788 117.266 23.0373 117.141 23.332C117.016 23.6267 116.954 23.961 116.954 24.335C116.954 24.709 117.016 25.0433 117.141 25.338C117.266 25.6327 117.43 25.882 117.634 26.086C117.838 26.29 118.07 26.4487 118.331 26.562C118.603 26.664 118.886 26.715 119.181 26.715ZM129 19.898C129.646 19.898 130.236 20.0113 130.768 20.238C131.312 20.4533 131.777 20.7593 132.162 21.156C132.559 21.5413 132.865 22.006 133.08 22.55C133.307 23.094 133.42 23.689 133.42 24.335C133.42 24.981 133.307 25.576 133.08 26.12C132.865 26.664 132.559 27.1343 132.162 27.531C131.777 27.9163 131.312 28.2223 130.768 28.449C130.236 28.6643 129.646 28.772 129 28.772C128.354 28.772 127.759 28.6643 127.215 28.449C126.683 28.2223 126.218 27.9163 125.821 27.531C125.436 27.1343 125.13 26.664 124.903 26.12C124.688 25.576 124.58 24.981 124.58 24.335C124.58 23.689 124.688 23.094 124.903 22.55C125.13 22.006 125.436 21.5413 125.821 21.156C126.218 20.7593 126.683 20.4533 127.215 20.238C127.759 20.0113 128.354 19.898 129 19.898ZM129 26.715C129.284 26.715 129.556 26.664 129.816 26.562C130.088 26.4487 130.326 26.29 130.53 26.086C130.734 25.882 130.893 25.6327 131.006 25.338C131.131 25.0433 131.193 24.709 131.193 24.335C131.193 23.961 131.131 23.6267 131.006 23.332C130.893 23.0373 130.734 22.788 130.53 22.584C130.326 22.38 130.088 22.227 129.816 22.125C129.556 22.0117 129.284 21.955 129 21.955C128.706 21.955 128.428 22.0117 128.167 22.125C127.907 22.227 127.674 22.38 127.47 22.584C127.266 22.788 127.102 23.0373 126.977 23.332C126.864 23.6267 126.807 23.961 126.807 24.335C126.807 24.709 126.864 25.0433 126.977 25.338C127.102 25.6327 127.266 25.882 127.47 26.086C127.674 26.29 127.907 26.4487 128.167 26.562C128.428 26.664 128.706 26.715 129 26.715ZM136.776 21.258H136.912C137.173 20.8387 137.524 20.51 137.966 20.272C138.408 20.0227 138.913 19.898 139.479 19.898C140.001 19.898 140.46 19.983 140.856 20.153C141.253 20.323 141.576 20.5667 141.825 20.884C142.086 21.19 142.279 21.564 142.403 22.006C142.539 22.4367 142.607 22.9183 142.607 23.451V28.5H140.38V23.723C140.38 23.1223 140.244 22.6803 139.972 22.397C139.712 22.1023 139.326 21.955 138.816 21.955C138.51 21.955 138.238 22.023 138 22.159C137.774 22.2837 137.575 22.4593 137.405 22.686C137.247 22.9013 137.122 23.162 137.031 23.468C136.952 23.7627 136.912 24.08 136.912 24.42V28.5H134.685V20.17H136.776V21.258ZM152.335 26.494C151.95 27.174 151.428 27.7237 150.771 28.143C150.125 28.5623 149.332 28.772 148.391 28.772C147.756 28.772 147.167 28.6643 146.623 28.449C146.09 28.2223 145.626 27.9107 145.229 27.514C144.832 27.1173 144.521 26.6527 144.294 26.12C144.079 25.576 143.971 24.981 143.971 24.335C143.971 23.7343 144.079 23.1677 144.294 22.635C144.509 22.091 144.81 21.6207 145.195 21.224C145.58 20.816 146.034 20.493 146.555 20.255C147.088 20.017 147.671 19.898 148.306 19.898C148.975 19.898 149.57 20.0113 150.091 20.238C150.612 20.4533 151.049 20.7593 151.4 21.156C151.751 21.5413 152.018 22.0003 152.199 22.533C152.38 23.0657 152.471 23.6437 152.471 24.267C152.471 24.3463 152.471 24.4143 152.471 24.471C152.46 24.539 152.454 24.6013 152.454 24.658C152.443 24.7147 152.437 24.777 152.437 24.845H146.164C146.209 25.185 146.3 25.4797 146.436 25.729C146.583 25.967 146.759 26.171 146.963 26.341C147.178 26.4997 147.411 26.6187 147.66 26.698C147.909 26.766 148.164 26.8 148.425 26.8C148.935 26.8 149.354 26.6867 149.683 26.46C150.023 26.222 150.289 25.9273 150.482 25.576L152.335 26.494ZM150.312 23.264C150.301 23.1167 150.25 22.9523 150.159 22.771C150.08 22.5897 149.955 22.4197 149.785 22.261C149.626 22.1023 149.422 21.972 149.173 21.87C148.935 21.768 148.646 21.717 148.306 21.717C147.83 21.717 147.411 21.853 147.048 22.125C146.685 22.397 146.43 22.7767 146.283 23.264H150.312Z" fill="#1A73E8"/>
<defs>
<clipPath id="clip0_4_56">
<rect width="26" height="26" fill="white" transform="translate(0 9)"/>
</clipPath>
</defs>
</svg>
