<svg width="1052" height="144" viewBox="0 0 1052 144" fill="none" xmlns="http://www.w3.org/2000/svg">
  <g clip-path="url(#clip0_243_14)">
    <g clip-path="url(#clip1_243_14)">
      <path d="M0 0H41.044V97.2325C18.3919 97.2325 0 78.8642 0 56.2394V0Z" fill="#FF843F" />
      <path
        d="M48.754 143.478V102.826H87.5279C89.5985 102.604 102.173 101.055 109.62 90.1897C114.913 82.4652 114.649 74.363 114.486 70.8757C114.328 67.523 113.898 58.3371 106.65 50.588C99.3651 42.7988 90.0571 41.6591 87.5279 41.4336H49.2213C20.8318 43.0208 1.98132 13.0805 0 0H86.1155C125.264 0 157 31.6953 157 70.7935V73.3387C157 112.075 125.558 143.478 86.7701 143.478H48.754Z"
        fill="white" />
      <path
        d="M48.7539 68.6523C71.3237 68.6523 89.6474 86.9525 89.6474 109.493V143.479H48.7539V68.6523Z"
        fill="#FF843F" />
    </g>
    <path
      d="M226.157 110.739V35.101H259.222C267.434 35.101 274.638 36.6858 280.833 39.8554C287.028 43.025 291.854 47.4193 295.312 53.0381C298.77 58.6569 300.499 65.2843 300.499 72.9201C300.499 80.484 298.77 87.1113 295.312 92.8022C291.854 98.421 287.028 102.815 280.833 105.985C274.638 109.154 267.434 110.739 259.222 110.739H226.157ZM240.204 98.8533H258.574C264.264 98.8533 269.163 97.7727 273.269 95.6116C277.447 93.4505 280.653 90.425 282.886 86.535C285.191 82.6451 286.344 78.1068 286.344 72.9201C286.344 67.6615 285.191 63.1232 282.886 59.3053C280.653 55.4153 277.447 52.3898 273.269 50.2287C269.163 48.0676 264.264 46.987 258.574 46.987H240.204V98.8533ZM314.132 110.739V53.0381H327.639V110.739H314.132ZM320.94 43.5293C318.418 43.5293 316.329 42.7369 314.672 41.1521C313.088 39.5673 312.295 37.6583 312.295 35.4252C312.295 33.12 313.088 31.2111 314.672 29.6983C316.329 28.1135 318.418 27.3211 320.94 27.3211C323.461 27.3211 325.514 28.0775 327.099 29.5902C328.756 31.031 329.584 32.8679 329.584 35.101C329.584 37.4782 328.792 39.4952 327.207 41.1521C325.622 42.7369 323.533 43.5293 320.94 43.5293ZM372.488 111.496C366.077 111.496 360.458 110.235 355.632 107.714C350.877 105.12 347.168 101.591 344.502 97.1244C341.909 92.6581 340.612 87.5796 340.612 81.8887C340.612 76.1258 341.873 71.0472 344.394 66.653C346.988 62.1867 350.517 58.693 354.984 56.1717C359.522 53.6504 364.672 52.3898 370.435 52.3898C376.054 52.3898 381.061 53.6144 385.455 56.0636C389.849 58.5129 393.307 61.9706 395.828 66.4369C398.349 70.9031 399.61 76.1618 399.61 82.2128C399.61 82.7891 399.574 83.4375 399.502 84.1578C399.502 84.8782 399.466 85.5625 399.394 86.2109H351.31V77.2423H392.262L386.968 80.0517C387.04 76.7381 386.355 73.8206 384.915 71.2993C383.474 68.7781 381.493 66.7971 378.972 65.3563C376.522 63.9156 373.677 63.1952 370.435 63.1952C367.122 63.1952 364.204 63.9156 361.683 65.3563C359.234 66.7971 357.289 68.8141 355.848 71.4074C354.479 73.9287 353.795 76.9182 353.795 80.3759V82.537C353.795 85.9948 354.587 89.0563 356.172 91.7216C357.757 94.387 359.99 96.44 362.872 97.8808C365.753 99.3215 369.067 100.042 372.813 100.042C376.054 100.042 378.972 99.5376 381.565 98.5291C384.158 97.5206 386.463 95.9358 388.48 93.7747L395.72 102.095C393.127 105.12 389.849 107.462 385.887 109.118C381.997 110.703 377.531 111.496 372.488 111.496ZM438.733 132.458C433.403 132.458 428.18 131.738 423.066 130.297C418.023 128.928 413.881 126.911 410.639 124.246L416.69 114.089C419.212 116.178 422.381 117.835 426.199 119.059C430.089 120.356 434.015 121.004 437.977 121.004C444.316 121.004 448.963 119.528 451.916 116.574C454.87 113.693 456.346 109.335 456.346 103.5V93.2344L457.427 80.1598L456.995 67.0852V53.0381H469.853V101.987C469.853 112.432 467.188 120.104 461.857 125.002C456.526 129.973 448.819 132.458 438.733 132.458ZM437.005 108.146C431.53 108.146 426.559 106.993 422.093 104.688C417.699 102.311 414.205 99.0333 411.612 94.8552C409.09 90.6771 407.83 85.7786 407.83 80.1598C407.83 74.613 409.09 69.7505 411.612 65.5724C414.205 61.3943 417.699 58.1527 422.093 55.8475C426.559 53.5424 431.53 52.3898 437.005 52.3898C441.903 52.3898 446.297 53.3623 450.187 55.3072C454.077 57.2522 457.175 60.2778 459.48 64.3838C461.857 68.4899 463.046 73.7486 463.046 80.1598C463.046 86.571 461.857 91.8657 459.48 96.0438C457.175 100.15 454.077 103.211 450.187 105.228C446.297 107.173 441.903 108.146 437.005 108.146ZM439.058 96.6922C442.443 96.6922 445.469 96.0078 448.134 94.6391C450.8 93.1984 452.853 91.2534 454.293 88.8042C455.806 86.2829 456.562 83.4014 456.562 80.1598C456.562 76.9182 455.806 74.0727 454.293 71.6235C452.853 69.1022 450.8 67.1933 448.134 65.8966C445.469 64.5279 442.443 63.8436 439.058 63.8436C435.672 63.8436 432.61 64.5279 429.873 65.8966C427.208 67.1933 425.119 69.1022 423.606 71.6235C422.165 74.0727 421.445 76.9182 421.445 80.1598C421.445 83.4014 422.165 86.2829 423.606 88.8042C425.119 91.2534 427.208 93.1984 429.873 94.6391C432.61 96.0078 435.672 96.6922 439.058 96.6922ZM513.544 111.496C507.637 111.496 502.378 110.235 497.768 107.714C493.157 105.12 489.519 101.591 486.854 97.1244C484.189 92.6581 482.856 87.5796 482.856 81.8887C482.856 76.1258 484.189 71.0472 486.854 66.653C489.519 62.1867 493.157 58.693 497.768 56.1717C502.378 53.6504 507.637 52.3898 513.544 52.3898C519.523 52.3898 524.817 53.6504 529.428 56.1717C534.11 58.693 537.748 62.1507 540.341 66.5449C543.006 70.9391 544.339 76.0537 544.339 81.8887C544.339 87.5796 543.006 92.6581 540.341 97.1244C537.748 101.591 534.11 105.12 529.428 107.714C524.817 110.235 519.523 111.496 513.544 111.496ZM513.544 99.9338C516.857 99.9338 519.811 99.2134 522.404 97.7727C524.997 96.332 527.014 94.2429 528.455 91.5055C529.968 88.7682 530.724 85.5625 530.724 81.8887C530.724 78.1428 529.968 74.9372 528.455 72.2718C527.014 69.5344 524.997 67.4454 522.404 66.0046C519.811 64.5639 516.893 63.8436 513.652 63.8436C510.338 63.8436 507.384 64.5639 504.791 66.0046C502.27 67.4454 500.253 69.5344 498.74 72.2718C497.227 74.9372 496.471 78.1428 496.471 81.8887C496.471 85.5625 497.227 88.7682 498.74 91.5055C500.253 94.2429 502.27 96.332 504.791 97.7727C507.384 99.2134 510.302 99.9338 513.544 99.9338Z"
      fill="white" />
    <path
      d="M623.424 111.82C617.661 111.82 612.294 110.883 607.324 109.01C602.425 107.065 598.139 104.364 594.465 100.906C590.864 97.3765 588.054 93.2344 586.037 88.48C584.02 83.7256 583.012 78.539 583.012 72.9201C583.012 67.3013 584.02 62.1147 586.037 57.3603C588.054 52.6059 590.9 48.4998 594.574 45.0421C598.247 41.5123 602.534 38.8109 607.432 36.938C612.33 34.993 617.697 34.0205 623.532 34.0205C629.727 34.0205 635.382 35.101 640.497 37.2621C645.611 39.3512 649.933 42.4848 653.463 46.6629L644.387 55.1992C641.649 52.2457 638.588 50.0486 635.202 48.6079C631.816 47.0951 628.142 46.3387 624.18 46.3387C620.218 46.3387 616.581 46.987 613.267 48.2837C610.025 49.5804 607.18 51.4173 604.731 53.7945C602.353 56.1717 600.48 58.9811 599.112 62.2227C597.815 65.4644 597.167 69.0302 597.167 72.9201C597.167 76.8101 597.815 80.3759 599.112 83.6176C600.48 86.8592 602.353 89.6686 604.731 92.0458C607.18 94.423 610.025 96.2599 613.267 97.5566C616.581 98.8533 620.218 99.5016 624.18 99.5016C628.142 99.5016 631.816 98.7812 635.202 97.3405C638.588 95.8277 641.649 93.5586 644.387 90.533L653.463 99.1774C649.933 103.283 645.611 106.417 640.497 108.578C635.382 110.739 629.691 111.82 623.424 111.82ZM700.649 110.739V99.0694L699.892 96.5841V76.1618C699.892 72.1998 698.704 69.1382 696.326 66.9771C693.949 64.744 690.347 63.6274 685.521 63.6274C682.279 63.6274 679.074 64.1317 675.904 65.1402C672.806 66.1487 670.177 67.5534 668.016 69.3543L662.721 59.5214C665.819 57.1442 669.493 55.3793 673.743 54.2267C678.065 53.0021 682.531 52.3898 687.142 52.3898C695.498 52.3898 701.945 54.4068 706.483 58.4408C711.094 62.4028 713.399 68.5619 713.399 76.9182V110.739H700.649ZM682.495 111.496C678.173 111.496 674.391 110.775 671.15 109.335C667.908 107.822 665.387 105.769 663.586 103.175C661.857 100.51 660.993 97.5206 660.993 94.2069C660.993 90.9653 661.749 88.0478 663.262 85.4545C664.846 82.8612 667.404 80.8081 670.934 79.2954C674.463 77.7826 679.146 77.0262 684.981 77.0262H701.729V85.9948H685.953C681.343 85.9948 678.245 86.7511 676.66 88.2639C675.076 89.7046 674.283 91.5055 674.283 93.6666C674.283 96.1159 675.256 98.0609 677.201 99.5016C679.146 100.942 681.847 101.663 685.305 101.663C688.618 101.663 691.572 100.906 694.165 99.3935C696.831 97.8808 698.74 95.6476 699.892 92.6941L702.161 100.798C700.865 104.184 698.523 106.813 695.138 108.686C691.824 110.559 687.61 111.496 682.495 111.496ZM730.733 110.739V53.0381H743.592V68.9221L742.079 64.2758C743.808 60.3858 746.509 57.4323 750.183 55.4153C753.929 53.3983 758.575 52.3898 764.122 52.3898V65.2483C763.546 65.1042 763.006 65.0322 762.501 65.0322C761.997 64.9601 761.493 64.9241 760.989 64.9241C755.874 64.9241 751.804 66.4369 748.778 69.4624C745.753 72.4159 744.24 76.8461 744.24 82.7531V110.739H730.733ZM807.564 111.496C802.666 111.496 798.308 110.415 794.49 108.254C790.672 106.093 787.646 102.851 785.413 98.5291C783.252 94.1349 782.172 88.5881 782.172 81.8887C782.172 75.1173 783.288 69.5705 785.521 65.2483C787.826 60.9261 790.888 57.7205 794.706 55.6314C798.596 53.4703 802.882 52.3898 807.564 52.3898C813.255 52.3898 818.262 53.6144 822.584 56.0636C826.978 58.5129 830.436 61.9346 832.957 66.3288C835.551 70.723 836.847 75.9097 836.847 81.8887C836.847 87.8677 835.551 93.0543 832.957 97.4485C830.436 101.843 826.978 105.301 822.584 107.822C818.262 110.271 813.255 111.496 807.564 111.496ZM775.58 110.739V30.5627H789.087V66.4369L788.006 81.7806L788.439 97.1244V110.739H775.58ZM806.052 99.9338C809.293 99.9338 812.175 99.2134 814.696 97.7727C817.289 96.332 819.342 94.2429 820.855 91.5055C822.368 88.7682 823.124 85.5625 823.124 81.8887C823.124 78.1428 822.368 74.9372 820.855 72.2718C819.342 69.5344 817.289 67.4454 814.696 66.0046C812.175 64.5639 809.293 63.8436 806.052 63.8436C802.81 63.8436 799.892 64.5639 797.299 66.0046C794.706 67.4454 792.653 69.5344 791.14 72.2718C789.627 74.9372 788.871 78.1428 788.871 81.8887C788.871 85.5625 789.627 88.7682 791.14 91.5055C792.653 94.2429 794.706 96.332 797.299 97.7727C799.892 99.2134 802.81 99.9338 806.052 99.9338ZM875.59 111.496C869.683 111.496 864.424 110.235 859.814 107.714C855.203 105.12 851.566 101.591 848.9 97.1244C846.235 92.6581 844.902 87.5796 844.902 81.8887C844.902 76.1258 846.235 71.0472 848.9 66.653C851.566 62.1867 855.203 58.693 859.814 56.1717C864.424 53.6504 869.683 52.3898 875.59 52.3898C881.569 52.3898 886.863 53.6504 891.474 56.1717C896.156 58.693 899.794 62.1507 902.387 66.5449C905.053 70.9391 906.385 76.0537 906.385 81.8887C906.385 87.5796 905.053 92.6581 902.387 97.1244C899.794 101.591 896.156 105.12 891.474 107.714C886.863 110.235 881.569 111.496 875.59 111.496ZM875.59 99.9338C878.903 99.9338 881.857 99.2134 884.45 97.7727C887.044 96.332 889.061 94.2429 890.501 91.5055C892.014 88.7682 892.77 85.5625 892.77 81.8887C892.77 78.1428 892.014 74.9372 890.501 72.2718C889.061 69.5344 887.044 67.4454 884.45 66.0046C881.857 64.5639 878.939 63.8436 875.698 63.8436C872.384 63.8436 869.431 64.5639 866.837 66.0046C864.316 67.4454 862.299 69.5344 860.786 72.2718C859.274 74.9372 858.517 78.1428 858.517 81.8887C858.517 85.5625 859.274 88.7682 860.786 91.5055C862.299 94.2429 864.316 96.332 866.837 97.7727C869.431 99.2134 872.348 99.9338 875.59 99.9338ZM952.042 52.3898C956.652 52.3898 960.758 53.2902 964.36 55.0911C968.034 56.892 970.915 59.6654 973.004 63.4113C975.093 67.0852 976.138 71.8396 976.138 77.6745V110.739H962.631V79.4034C962.631 74.2888 961.406 70.4709 958.957 67.9496C956.58 65.4284 953.23 64.1677 948.908 64.1677C945.739 64.1677 942.929 64.816 940.48 66.1127C938.031 67.4094 936.122 69.3543 934.753 71.9477C933.456 74.4689 932.808 77.6745 932.808 81.5645V110.739H919.301V53.0381H932.16V68.598L929.891 63.8436C931.908 60.1697 934.825 57.3603 938.643 55.4153C942.533 53.3983 946.999 52.3898 952.042 52.3898ZM1020.5 111.496C1014.09 111.496 1008.47 110.235 1003.64 107.714C998.889 105.12 995.179 101.591 992.513 97.1244C989.92 92.6581 988.623 87.5796 988.623 81.8887C988.623 76.1258 989.884 71.0472 992.405 66.653C994.999 62.1867 998.528 58.693 1002.99 56.1717C1007.53 53.6504 1012.68 52.3898 1018.45 52.3898C1024.07 52.3898 1029.07 53.6144 1033.47 56.0636C1037.86 58.5129 1041.32 61.9706 1043.84 66.4369C1046.36 70.9031 1047.62 76.1618 1047.62 82.2128C1047.62 82.7891 1047.59 83.4375 1047.51 84.1578C1047.51 84.8782 1047.48 85.5625 1047.41 86.2109H999.321V77.2423H1040.27L1034.98 80.0517C1035.05 76.7381 1034.37 73.8206 1032.93 71.2993C1031.49 68.7781 1029.5 66.7971 1026.98 65.3563C1024.53 63.9156 1021.69 63.1952 1018.45 63.1952C1015.13 63.1952 1012.22 63.9156 1009.69 65.3563C1007.24 66.7971 1005.3 68.8141 1003.86 71.4074C1002.49 73.9287 1001.81 76.9182 1001.81 80.3759V82.537C1001.81 85.9948 1002.6 89.0563 1004.18 91.7216C1005.77 94.387 1008 96.44 1010.88 97.8808C1013.76 99.3215 1017.08 100.042 1020.82 100.042C1024.07 100.042 1026.98 99.5376 1029.58 98.5291C1032.17 97.5206 1034.47 95.9358 1036.49 93.7747L1043.73 102.095C1041.14 105.12 1037.86 107.462 1033.9 109.118C1030.01 110.703 1025.54 111.496 1020.5 111.496Z"
      fill="#FF843F" />
  </g>
  <defs>
    <clipPath id="clip0_243_14">
      <rect width="1052" height="143.478" fill="white" />
    </clipPath>
    <clipPath id="clip1_243_14">
      <rect width="157" height="143.478" fill="white" />
    </clipPath>
  </defs>
</svg>
