<svg width="379" height="213" viewBox="0 0 379 213" fill="none" xmlns="http://www.w3.org/2000/svg">
<rect width="378.808" height="213" fill="#C4473A"/>
<g clip-path="url(#clip0_187_35)">
<path d="M144.221 122.188V93.8378H147.888L165.237 116.677V93.8378H168.708V122.188H165.04L147.691 99.1469V122.188H144.221ZM196.861 121.079C194.575 121.952 192.11 122.389 189.465 122.389C179.197 122.389 174.059 117.467 174.059 107.619C174.059 98.2981 179.018 93.6366 188.932 93.6366C191.773 93.6366 194.418 94.0369 196.861 94.8288V98.0006C194.456 97.0821 191.902 96.6114 189.328 96.6116C181.597 96.6116 177.729 100.282 177.729 107.615C177.729 115.481 181.536 119.414 189.15 119.414C190.367 119.414 191.716 119.257 193.197 118.937V109.301H196.863L196.861 121.079ZM202.711 111.246V93.8356H206.377V111.244C206.377 116.688 209.087 119.414 214.508 119.414C219.928 119.414 222.639 116.688 222.639 111.244V93.8356H226.305V111.244C226.305 118.675 222.374 122.389 214.508 122.389C206.642 122.389 202.711 118.675 202.711 111.246ZM236.514 93.8356V119.215H251.345V122.188H232.848V93.8356H236.514ZM256.641 122.188H252.833L266.931 90.095L281.03 122.188H276.961L273.293 113.265H263.917L264.93 110.292H272.065L266.772 97.4428L256.641 122.188ZM284.893 122.188V93.8378H296.988C302.382 93.8378 305.075 96.1041 305.075 100.637C305.075 104.325 302.441 107.057 297.167 108.824L306.901 122.188H302.063L293.043 109.441V107.039C298.462 106.178 301.172 104.097 301.172 100.794C301.172 98.1778 299.665 96.8697 296.651 96.8697H288.561V122.188H284.893ZM105.57 107.19H112.54L105.625 92.7309L99.5306 107.19H105.57ZM105.647 72L72.5325 83.6528L77.765 127.037L105.684 142.381L133.743 126.832L138.976 83.4494L105.647 72ZM96.8356 113.753L92.7297 123.704L85.0953 123.527L105.568 77.9806L126.984 123.704L119.678 123.607L115.182 113.278L105.586 113.429" fill="white"/>
</g>
<path d="M221.784 186H220.47V174.785H221.784V186ZM228.744 179.29C228.52 179.118 228.197 179.032 227.775 179.032C227.227 179.032 226.768 179.29 226.398 179.806C226.033 180.322 225.851 181.026 225.851 181.918V186H224.568V177.992H225.851V179.642H225.882C226.065 179.079 226.343 178.641 226.719 178.328C227.094 178.01 227.514 177.851 227.978 177.851C228.312 177.851 228.567 177.887 228.744 177.96V179.29ZM240.264 186H238.981V184.749H238.95C238.392 185.708 237.571 186.188 236.487 186.188C235.689 186.188 235.063 185.977 234.61 185.554C234.161 185.132 233.937 184.571 233.937 183.873C233.937 182.376 234.818 181.506 236.581 181.261L238.981 180.924C238.981 179.564 238.431 178.883 237.331 178.883C236.367 178.883 235.496 179.212 234.719 179.869V178.555C235.507 178.054 236.414 177.804 237.441 177.804C239.323 177.804 240.264 178.8 240.264 180.792V186ZM238.981 181.949L237.05 182.215C236.455 182.298 236.007 182.447 235.705 182.661C235.402 182.869 235.251 183.242 235.251 183.779C235.251 184.17 235.389 184.491 235.666 184.741C235.947 184.986 236.32 185.108 236.784 185.108C237.42 185.108 237.944 184.887 238.356 184.444C238.773 183.995 238.981 183.43 238.981 182.747V181.949ZM253.512 182.317H247.858C247.879 183.208 248.118 183.896 248.577 184.381C249.036 184.866 249.667 185.108 250.47 185.108C251.372 185.108 252.201 184.811 252.957 184.217V185.421C252.253 185.932 251.322 186.188 250.165 186.188C249.033 186.188 248.145 185.825 247.498 185.101C246.852 184.371 246.528 183.346 246.528 182.027C246.528 180.781 246.88 179.767 247.584 178.985C248.293 178.198 249.172 177.804 250.22 177.804C251.268 177.804 252.078 178.143 252.652 178.821C253.225 179.499 253.512 180.44 253.512 181.644V182.317ZM252.198 181.229C252.193 180.489 252.013 179.913 251.659 179.501C251.309 179.089 250.822 178.883 250.196 178.883C249.591 178.883 249.078 179.1 248.655 179.532C248.233 179.965 247.972 180.531 247.873 181.229H252.198ZM254.974 185.711V184.334C255.673 184.85 256.442 185.108 257.282 185.108C258.408 185.108 258.971 184.733 258.971 183.982C258.971 183.769 258.921 183.589 258.822 183.443C258.728 183.291 258.598 183.159 258.431 183.044C258.27 182.929 258.077 182.827 257.852 182.739C257.633 182.645 257.396 182.549 257.141 182.449C256.786 182.309 256.473 182.168 256.202 182.027C255.936 181.881 255.712 181.72 255.53 181.542C255.352 181.36 255.217 181.154 255.123 180.924C255.034 180.695 254.99 180.427 254.99 180.119C254.99 179.744 255.076 179.413 255.248 179.126C255.42 178.834 255.65 178.591 255.936 178.398C256.223 178.2 256.549 178.052 256.914 177.953C257.284 177.854 257.665 177.804 258.056 177.804C258.749 177.804 259.37 177.924 259.917 178.164V179.462C259.328 179.076 258.65 178.883 257.884 178.883C257.644 178.883 257.427 178.912 257.235 178.969C257.042 179.021 256.875 179.097 256.734 179.196C256.599 179.295 256.492 179.415 256.413 179.556C256.34 179.691 256.304 179.843 256.304 180.009C256.304 180.218 256.34 180.393 256.413 180.533C256.492 180.674 256.604 180.799 256.75 180.909C256.896 181.018 257.073 181.117 257.282 181.206C257.49 181.295 257.727 181.391 257.993 181.495C258.348 181.631 258.666 181.772 258.947 181.918C259.229 182.058 259.469 182.22 259.667 182.403C259.865 182.58 260.016 182.786 260.12 183.02C260.23 183.255 260.285 183.534 260.285 183.857C260.285 184.253 260.196 184.598 260.019 184.889C259.847 185.181 259.615 185.424 259.323 185.617C259.031 185.81 258.694 185.953 258.314 186.047C257.933 186.141 257.534 186.188 257.117 186.188C256.294 186.188 255.579 186.029 254.974 185.711ZM265.978 185.922C265.676 186.089 265.277 186.172 264.781 186.172C263.379 186.172 262.678 185.39 262.678 183.826V179.087H261.301V177.992H262.678V176.037L263.96 175.622V177.992H265.978V179.087H263.96V183.599C263.96 184.136 264.051 184.519 264.234 184.749C264.416 184.978 264.719 185.093 265.141 185.093C265.464 185.093 265.743 185.004 265.978 184.827V185.922ZM273.423 186H272.141V184.749H272.109C271.551 185.708 270.73 186.188 269.646 186.188C268.848 186.188 268.222 185.977 267.769 185.554C267.32 185.132 267.096 184.571 267.096 183.873C267.096 182.376 267.977 181.506 269.74 181.261L272.141 180.924C272.141 179.564 271.59 178.883 270.49 178.883C269.526 178.883 268.655 179.212 267.878 179.869V178.555C268.666 178.054 269.573 177.804 270.6 177.804C272.482 177.804 273.423 178.8 273.423 180.792V186ZM272.141 181.949L270.209 182.215C269.614 182.298 269.166 182.447 268.864 182.661C268.561 182.869 268.41 183.242 268.41 183.779C268.41 184.17 268.548 184.491 268.825 184.741C269.106 184.986 269.479 185.108 269.943 185.108C270.579 185.108 271.103 184.887 271.515 184.444C271.932 183.995 272.141 183.43 272.141 182.747V181.949ZM282.675 186H281.392V184.639H281.361C280.767 185.672 279.849 186.188 278.608 186.188C277.602 186.188 276.796 185.831 276.192 185.116C275.592 184.397 275.292 183.419 275.292 182.184C275.292 180.859 275.626 179.798 276.293 179.001C276.961 178.203 277.85 177.804 278.96 177.804C280.06 177.804 280.86 178.237 281.361 179.102H281.392V174.144H282.675V186ZM281.392 182.379V181.198C281.392 180.552 281.178 180.004 280.751 179.556C280.323 179.108 279.781 178.883 279.124 178.883C278.342 178.883 277.727 179.17 277.279 179.744C276.83 180.317 276.606 181.11 276.606 182.121C276.606 183.044 276.82 183.774 277.247 184.311C277.68 184.843 278.259 185.108 278.983 185.108C279.698 185.108 280.276 184.85 280.72 184.334C281.168 183.818 281.392 183.166 281.392 182.379ZM285.928 175.958C285.699 175.958 285.503 175.88 285.342 175.724C285.18 175.567 285.099 175.369 285.099 175.129C285.099 174.89 285.18 174.692 285.342 174.535C285.503 174.373 285.699 174.293 285.928 174.293C286.163 174.293 286.361 174.373 286.522 174.535C286.689 174.692 286.773 174.89 286.773 175.129C286.773 175.359 286.689 175.554 286.522 175.716C286.361 175.878 286.163 175.958 285.928 175.958ZM286.554 186H285.271V177.992H286.554V186ZM288.665 185.711V184.334C289.364 184.85 290.133 185.108 290.972 185.108C292.099 185.108 292.662 184.733 292.662 183.982C292.662 183.769 292.612 183.589 292.513 183.443C292.419 183.291 292.289 183.159 292.122 183.044C291.96 182.929 291.767 182.827 291.543 182.739C291.324 182.645 291.087 182.549 290.832 182.449C290.477 182.309 290.164 182.168 289.893 182.027C289.627 181.881 289.403 181.72 289.221 181.542C289.043 181.36 288.908 181.154 288.814 180.924C288.725 180.695 288.681 180.427 288.681 180.119C288.681 179.744 288.767 179.413 288.939 179.126C289.111 178.834 289.34 178.591 289.627 178.398C289.914 178.2 290.24 178.052 290.605 177.953C290.975 177.854 291.356 177.804 291.747 177.804C292.44 177.804 293.06 177.924 293.608 178.164V179.462C293.019 179.076 292.341 178.883 291.575 178.883C291.335 178.883 291.118 178.912 290.925 178.969C290.733 179.021 290.566 179.097 290.425 179.196C290.289 179.295 290.182 179.415 290.104 179.556C290.031 179.691 289.995 179.843 289.995 180.009C289.995 180.218 290.031 180.393 290.104 180.533C290.182 180.674 290.295 180.799 290.441 180.909C290.587 181.018 290.764 181.117 290.972 181.206C291.181 181.295 291.418 181.391 291.684 181.495C292.039 181.631 292.357 181.772 292.638 181.918C292.92 182.058 293.16 182.22 293.358 182.403C293.556 182.58 293.707 182.786 293.811 183.02C293.921 183.255 293.975 183.534 293.975 183.857C293.975 184.253 293.887 184.598 293.71 184.889C293.538 185.181 293.305 185.424 293.014 185.617C292.722 185.81 292.385 185.953 292.005 186.047C291.624 186.141 291.225 186.188 290.808 186.188C289.984 186.188 289.27 186.029 288.665 185.711ZM299.669 185.922C299.366 186.089 298.968 186.172 298.472 186.172C297.07 186.172 296.369 185.39 296.369 183.826V179.087H294.992V177.992H296.369V176.037L297.651 175.622V177.992H299.669V179.087H297.651V183.599C297.651 184.136 297.742 184.519 297.925 184.749C298.107 184.978 298.41 185.093 298.832 185.093C299.155 185.093 299.434 185.004 299.669 184.827V185.922ZM302.038 175.958C301.809 175.958 301.614 175.88 301.452 175.724C301.29 175.567 301.209 175.369 301.209 175.129C301.209 174.89 301.29 174.692 301.452 174.535C301.614 174.373 301.809 174.293 302.038 174.293C302.273 174.293 302.471 174.373 302.633 174.535C302.8 174.692 302.883 174.89 302.883 175.129C302.883 175.359 302.8 175.554 302.633 175.716C302.471 175.878 302.273 175.958 302.038 175.958ZM302.664 186H301.381V177.992H302.664V186ZM310.719 185.632C310.104 186.003 309.374 186.188 308.529 186.188C307.388 186.188 306.465 185.818 305.761 185.077C305.062 184.332 304.713 183.367 304.713 182.184C304.713 180.865 305.091 179.806 305.847 179.008C306.603 178.206 307.612 177.804 308.874 177.804C309.577 177.804 310.198 177.934 310.735 178.195V179.509C310.141 179.092 309.504 178.883 308.827 178.883C308.008 178.883 307.336 179.178 306.809 179.767C306.288 180.351 306.027 181.12 306.027 182.074C306.027 183.013 306.272 183.753 306.762 184.295C307.257 184.837 307.919 185.108 308.748 185.108C309.447 185.108 310.104 184.876 310.719 184.412V185.632ZM318.391 186H317.109V184.749H317.077C316.519 185.708 315.698 186.188 314.614 186.188C313.816 186.188 313.191 185.977 312.737 185.554C312.289 185.132 312.064 184.571 312.064 183.873C312.064 182.376 312.945 181.506 314.708 181.261L317.109 180.924C317.109 179.564 316.559 178.883 315.458 178.883C314.494 178.883 313.623 179.212 312.846 179.869V178.555C313.634 178.054 314.541 177.804 315.568 177.804C317.45 177.804 318.391 178.8 318.391 180.792V186ZM317.109 181.949L315.177 182.215C314.583 182.298 314.134 182.447 313.832 182.661C313.529 182.869 313.378 183.242 313.378 183.779C313.378 184.17 313.516 184.491 313.793 184.741C314.074 184.986 314.447 185.108 314.911 185.108C315.547 185.108 316.071 184.887 316.483 184.444C316.9 183.995 317.109 183.43 317.109 182.747V181.949ZM320.323 185.711V184.334C321.021 184.85 321.79 185.108 322.63 185.108C323.756 185.108 324.319 184.733 324.319 183.982C324.319 183.769 324.27 183.589 324.171 183.443C324.077 183.291 323.946 183.159 323.78 183.044C323.618 182.929 323.425 182.827 323.201 182.739C322.982 182.645 322.745 182.549 322.489 182.449C322.135 182.309 321.822 182.168 321.551 182.027C321.285 181.881 321.061 181.72 320.878 181.542C320.701 181.36 320.565 181.154 320.471 180.924C320.383 180.695 320.338 180.427 320.338 180.119C320.338 179.744 320.425 179.413 320.597 179.126C320.769 178.834 320.998 178.591 321.285 178.398C321.572 178.2 321.897 178.052 322.262 177.953C322.632 177.854 323.013 177.804 323.404 177.804C324.098 177.804 324.718 177.924 325.265 178.164V179.462C324.676 179.076 323.998 178.883 323.232 178.883C322.992 178.883 322.776 178.912 322.583 178.969C322.39 179.021 322.223 179.097 322.082 179.196C321.947 179.295 321.84 179.415 321.762 179.556C321.689 179.691 321.652 179.843 321.652 180.009C321.652 180.218 321.689 180.393 321.762 180.533C321.84 180.674 321.952 180.799 322.098 180.909C322.244 181.018 322.421 181.117 322.63 181.206C322.838 181.295 323.076 181.391 323.342 181.495C323.696 181.631 324.014 181.772 324.296 181.918C324.577 182.058 324.817 182.22 325.015 182.403C325.213 182.58 325.364 182.786 325.469 183.02C325.578 183.255 325.633 183.534 325.633 183.857C325.633 184.253 325.544 184.598 325.367 184.889C325.195 185.181 324.963 185.424 324.671 185.617C324.379 185.81 324.043 185.953 323.662 186.047C323.282 186.141 322.883 186.188 322.466 186.188C321.642 186.188 320.928 186.029 320.323 185.711Z" fill="white"/>
<path d="M338.028 189.253L345.301 181.972L338.028 174.691L338.731 173.987L346.724 181.972L338.731 189.957L338.028 189.253Z" fill="white"/>
<defs>
<clipPath id="clip0_187_35">
<rect width="234.63" height="70" fill="white" transform="translate(72.5325 72)"/>
</clipPath>
</defs>
</svg>
