<svg width="380" height="213" viewBox="0 0 380 213" fill="none" xmlns="http://www.w3.org/2000/svg">
<rect width="378.808" height="213" transform="translate(0.826347)" fill="#6EB340"/>
<g clip-path="url(#clip0_186_28)">
<path d="M412.925 13H-32.9245V201H412.925V13Z" fill="#6EB340"/>
<path d="M131.515 144.478C127.076 144.478 122.635 144.505 118.196 144.47C114.614 144.441 111.872 142.94 110.069 139.814C105.621 132.096 101.179 124.375 96.6739 116.689C94.7518 113.411 94.7171 110.239 96.6318 106.958C101.179 99.1691 105.675 91.348 110.208 83.5465C111.914 80.609 114.577 79.1378 117.941 79.1182C127.046 79.0595 136.154 79.0595 145.259 79.1182C148.625 79.1403 151.285 80.6115 152.992 83.549C157.579 91.4484 162.144 99.3576 166.719 107.262C168.485 110.312 168.443 113.343 166.677 116.385C162.122 124.236 157.584 132.098 153.037 139.954C151.298 142.957 148.608 144.412 145.17 144.458C140.622 144.524 136.067 144.478 131.515 144.478ZM111.511 108.767C111.526 120.579 119.194 129.252 128.986 130.316C137.895 131.286 146.062 126.664 149.718 118.584C153.292 110.687 151.216 101.358 144.578 95.4972C142.51 93.6711 141.093 93.4704 139.857 94.829C138.668 96.1361 139.072 97.5584 141.132 99.3233C145.757 103.284 147.486 109.962 145.356 115.631C143.146 121.509 137.598 125.313 131.282 125.276C125.203 125.242 119.692 121.359 117.567 115.614C115.362 109.649 117.138 103.255 122.184 99.0027C123.739 97.6906 124.071 96.1508 123.061 94.9318C122.001 93.6515 120.527 93.6638 118.87 95.0542C114.032 99.1104 111.59 104.29 111.511 108.767ZM128.478 101.659C128.478 104.413 128.455 107.164 128.485 109.918C128.508 112.067 129.768 113.492 131.529 113.445C133.236 113.401 134.4 112.013 134.405 109.945C134.417 104.496 134.417 99.0467 134.405 93.5977C134.4 91.3994 133.238 89.987 131.467 89.9723C129.716 89.9576 128.503 91.3921 128.483 93.5683C128.46 96.2659 128.478 98.961 128.478 101.659Z" fill="white"/>
<path d="M288.572 101.321C284.166 105.252 279.933 106.08 275.487 103.987C271.053 101.899 268.368 97.0664 268.633 91.7372C268.851 87.3579 270.268 83.5857 274.109 81.0496C278.64 78.0583 284.191 78.6996 287.899 82.6016C288.124 82.8391 288.258 83.1597 288.458 83.4853C289.085 82.817 288.81 82.2932 288.882 81.8305C289.112 80.3544 289.974 79.4928 291.458 79.3483C292.932 79.2039 293.989 79.8404 294.487 81.2626C294.579 81.527 294.668 81.8085 294.666 82.0827C294.609 88.5452 295.047 95.0272 294.482 101.468C293.908 108.033 290.227 111.426 283.576 112.04C279.601 112.407 275.749 111.901 272.076 110.273C270.018 109.36 269.297 108.182 269.956 106.704C270.61 105.238 272.078 104.922 274.047 105.891C276.668 107.179 279.435 107.641 282.328 107.392C286.004 107.066 288.382 104.794 288.572 101.321ZM274.57 92.0897C274.553 96.5596 277.352 99.8717 281.253 100.004C285.563 100.148 288.83 96.9782 288.966 92.5181C289.11 87.8279 285.969 84.227 281.701 84.1928C277.681 84.1609 274.587 87.5856 274.57 92.0897Z" fill="white"/>
<path d="M196.153 83.4731C199.499 79.4218 203.571 78.2908 208.23 79.926C213.301 81.7057 215.619 85.6982 216.082 90.7874C216.441 94.731 215.592 98.4201 212.815 101.451C208.565 106.089 201.505 106.322 196.987 102.016C196.755 101.793 196.509 101.583 195.992 101.113C195.992 103.651 195.999 105.867 195.987 108.082C195.982 108.755 196.012 109.445 195.873 110.097C195.571 111.502 194.295 112.403 192.861 112.329C191.419 112.256 190.315 111.235 190.181 109.754C190.102 108.86 190.144 107.955 190.141 107.056C190.139 99.2377 190.139 91.419 190.141 83.6004C190.141 83.0373 190.116 82.4719 190.181 81.9137C190.354 80.4377 191.211 79.5491 192.702 79.3875C194.188 79.2259 195.246 79.9187 195.746 81.2969C195.972 81.9064 195.997 82.5845 196.153 83.4731ZM203.051 100.058C207.282 100.08 210.266 96.7799 210.244 92.1044C210.224 87.7178 207.197 84.3225 203.217 84.2246C199.175 84.1242 195.833 87.6443 195.751 92.0897C195.667 96.5156 198.895 100.036 203.051 100.058Z" fill="white"/>
<path d="M250.12 82.8072C252.612 79.811 255.783 78.9346 259.389 79.4952C263.307 80.1047 265.958 82.7607 266.357 86.7337C266.879 91.9429 266.562 97.1814 266.515 102.405C266.5 104.075 265.202 105.069 263.565 105.027C261.908 104.983 260.746 103.854 260.722 102.082C260.675 98.5963 260.712 95.1105 260.704 91.6246C260.702 90.8952 260.702 90.1608 260.627 89.4362C260.333 86.4742 258.527 84.7313 255.696 84.6334C252.6 84.5257 250.261 86.2466 249.994 89.2355C249.731 92.1363 249.855 95.0738 249.818 97.9941C249.801 99.3429 249.858 100.694 249.786 102.041C249.684 103.95 248.547 105.049 246.814 105.027C245.082 105.007 243.977 103.867 243.96 101.935C243.925 98.2242 243.95 94.5156 243.95 90.8046C243.95 88.2196 243.945 85.6321 243.953 83.0471C243.958 80.8636 244.805 79.6249 246.432 79.3973C248.171 79.1525 249.31 80.1439 249.838 82.3495C249.863 82.4425 249.947 82.5257 250.12 82.8072Z" fill="white"/>
<path d="M175.463 125.962C176.79 125.222 177.799 124.503 179.059 124.275C184.271 123.335 188.15 125.839 189.249 131.017C189.856 133.868 189.75 136.723 188.509 139.44C186.25 144.387 180.85 145.9 176.303 142.84C175.688 142.426 175.386 142.213 174.94 143.053C174.311 144.233 173.179 144.59 171.879 144.306C170.581 144.022 170.041 143.072 169.853 141.878C169.773 141.381 169.753 140.872 169.753 140.368C169.746 134.069 169.744 127.771 169.756 121.47C169.758 120.855 169.828 120.236 169.934 119.631C170.194 118.15 171.103 117.328 172.632 117.342C174.145 117.357 175.064 118.182 175.344 119.648C175.438 120.14 175.45 120.652 175.455 121.156C175.473 122.669 175.463 124.184 175.463 125.962ZM183.701 134.182C183.795 133.203 183.624 132.209 183.28 131.252C182.75 129.78 181.814 128.676 180.142 128.544C178.438 128.412 177.172 129.225 176.429 130.713C175.339 132.897 175.317 135.168 176.27 137.386C176.867 138.774 178.041 139.53 179.617 139.596C181.249 139.665 182.289 138.774 183.01 137.479C183.565 136.485 183.78 135.376 183.701 134.182Z" fill="white"/>
<path d="M179.072 105.049C175.282 105.025 172.282 104.099 169.528 102.376C167.997 101.419 167.581 100.087 168.381 98.8386C169.127 97.6759 170.502 97.4433 171.983 98.3172C174.118 99.5779 176.35 100.486 178.888 100.442C179.691 100.43 180.476 100.356 181.212 99.9941C183.042 99.0908 183.201 97.0908 181.494 95.9819C180.095 95.0737 178.453 94.7433 176.88 94.2733C175.624 93.8988 174.378 93.5144 173.209 92.9269C170.937 91.7862 169.404 90.1412 169.283 87.4583C169.149 84.4963 170.194 82.1096 172.872 80.6996C177.511 78.2541 182.024 79.2651 186.376 81.5588C187.523 82.1634 187.796 83.3238 187.29 84.4963C186.768 85.7129 185.693 86.036 184.452 85.7717C183.961 85.6664 183.508 85.3947 183.042 85.1915C181.682 84.5991 180.295 84.1144 178.802 83.9798C176.587 83.7791 175.029 84.4694 174.663 85.8304C174.311 87.1327 175.173 88.0972 177.551 88.998C179.619 89.7814 181.801 90.2513 183.798 91.2379C186.847 92.7433 188.269 94.9097 188.056 97.7199C187.8 101.074 185.975 103.394 182.755 104.444C181.39 104.89 179.996 105.113 179.072 105.049Z" fill="white"/>
<path d="M212.127 134.282C212.124 140.394 208.097 144.438 202.043 144.414C196.046 144.389 191.93 140.213 191.972 134.201C192.016 128.111 196.064 124.069 202.11 124.079C208.151 124.089 212.129 128.14 212.127 134.282ZM206.259 134.231C206.321 133.034 206.125 131.888 205.59 130.804C204.844 129.298 203.623 128.48 201.936 128.529C200.235 128.578 199.043 129.499 198.461 131.058C197.622 133.298 197.622 135.557 198.62 137.765C199.259 139.18 200.428 139.924 201.969 139.969C203.432 140.01 204.589 139.354 205.362 138.101C206.09 136.909 206.326 135.604 206.259 134.231Z" fill="white"/>
<path d="M235.021 134.282C235.018 140.394 230.991 144.438 224.935 144.414C218.938 144.389 214.821 140.211 214.866 134.199C214.911 128.108 218.958 124.067 225.004 124.079C231.045 124.089 235.023 128.14 235.021 134.282ZM229.148 134.187C229.212 133.046 229.017 131.959 228.534 130.916C227.828 129.389 226.634 128.52 224.952 128.525C223.184 128.527 221.945 129.462 221.336 131.1C220.523 133.288 220.528 135.496 221.452 137.655C222.057 139.068 223.174 139.876 224.732 139.959C226.357 140.044 227.57 139.31 228.358 137.92C229.019 136.762 229.23 135.499 229.148 134.187Z" fill="white"/>
<path d="M224.234 82.5722C225.552 80.9395 227.196 79.8967 229.193 79.4609C231.229 79.0154 232.725 79.7767 233.146 81.407C233.594 83.1426 232.631 84.4939 230.552 85.0495C226.594 86.107 224.162 89.2428 224.08 93.4997C224.028 96.1973 224.088 98.895 224.065 101.593C224.046 103.852 222.938 105.076 221.024 105.022C219.223 104.973 218.225 103.759 218.22 101.531C218.207 95.4042 218.212 89.2795 218.217 83.1524C218.22 80.7828 219.022 79.5907 220.731 79.3777C222.52 79.155 223.634 80.1415 224.234 82.5722Z" fill="white"/>
<path d="M239.407 134.728C239.407 133.773 239.407 132.818 239.407 131.863C239.407 130.522 239.796 129.068 237.684 128.742C236.911 128.622 236.606 127.673 236.675 126.799C236.752 125.834 237.3 125.139 238.191 125C239.353 124.816 239.469 124.177 239.422 123.242C239.378 122.346 239.363 121.435 239.479 120.552C239.687 118.965 240.869 117.984 242.372 118.018C243.866 118.052 245.008 119.11 245.189 120.657C245.241 121.1 245.256 121.558 245.213 122.003C245.05 123.661 245.025 125.066 247.435 124.978C248.5 124.938 249.028 125.895 249.035 127.002C249.043 128.162 248.362 128.98 247.346 128.958C245.164 128.909 245.114 130.121 245.199 131.719C245.298 133.624 245.199 135.538 245.228 137.447C245.26 139.506 245.474 139.677 247.507 139.469C248.24 139.393 248.973 139.239 249.657 139.677C251.084 140.59 250.99 142.771 249.32 143.56C246.806 144.747 244.153 144.828 241.602 143.596C239.977 142.813 239.593 141.212 239.492 139.611C239.39 137.988 239.469 136.355 239.469 134.728C239.447 134.728 239.427 134.728 239.407 134.728Z" fill="white"/>
<path d="M235.338 92.2195C235.338 89.0176 235.323 85.8133 235.343 82.6114C235.355 80.5674 236.453 79.3581 238.216 79.3655C239.962 79.3728 241.129 80.6139 241.136 82.5943C241.156 89.0005 241.156 95.4067 241.139 101.813C241.134 103.832 240.029 105.007 238.236 105.027C236.438 105.044 235.355 103.874 235.343 101.832C235.326 98.6257 235.338 95.4238 235.338 92.2195Z" fill="white"/>
<path d="M238.144 69.613C239.685 69.5616 241.099 70.9055 241.144 72.4648C241.191 74.1269 239.999 75.3607 238.315 75.3998C236.611 75.4366 235.343 74.2738 235.301 72.6386C235.261 71.0842 236.594 69.6644 238.144 69.613Z" fill="white"/>
</g>
<path d="M222.784 186H221.47V174.785H222.784V186ZM229.744 179.29C229.52 179.118 229.197 179.032 228.775 179.032C228.227 179.032 227.768 179.29 227.398 179.806C227.033 180.322 226.851 181.026 226.851 181.918V186H225.568V177.992H226.851V179.642H226.882C227.065 179.079 227.343 178.641 227.719 178.328C228.094 178.01 228.514 177.851 228.978 177.851C229.312 177.851 229.567 177.887 229.744 177.96V179.29ZM241.264 186H239.981V184.749H239.95C239.392 185.708 238.571 186.188 237.487 186.188C236.689 186.188 236.063 185.977 235.61 185.554C235.161 185.132 234.937 184.571 234.937 183.873C234.937 182.376 235.818 181.506 237.581 181.261L239.981 180.924C239.981 179.564 239.431 178.883 238.331 178.883C237.367 178.883 236.496 179.212 235.719 179.869V178.555C236.507 178.054 237.414 177.804 238.441 177.804C240.323 177.804 241.264 178.8 241.264 180.792V186ZM239.981 181.949L238.05 182.215C237.455 182.298 237.007 182.447 236.705 182.661C236.402 182.869 236.251 183.242 236.251 183.779C236.251 184.17 236.389 184.491 236.666 184.741C236.947 184.986 237.32 185.108 237.784 185.108C238.42 185.108 238.944 184.887 239.356 184.444C239.773 183.995 239.981 183.43 239.981 182.747V181.949ZM254.512 182.317H248.858C248.879 183.208 249.118 183.896 249.577 184.381C250.036 184.866 250.667 185.108 251.47 185.108C252.372 185.108 253.201 184.811 253.957 184.217V185.421C253.253 185.932 252.322 186.188 251.165 186.188C250.033 186.188 249.145 185.825 248.498 185.101C247.852 184.371 247.528 183.346 247.528 182.027C247.528 180.781 247.88 179.767 248.584 178.985C249.293 178.198 250.172 177.804 251.22 177.804C252.268 177.804 253.078 178.143 253.652 178.821C254.225 179.499 254.512 180.44 254.512 181.644V182.317ZM253.198 181.229C253.193 180.489 253.013 179.913 252.659 179.501C252.309 179.089 251.822 178.883 251.196 178.883C250.591 178.883 250.078 179.1 249.655 179.532C249.233 179.965 248.972 180.531 248.873 181.229H253.198ZM255.974 185.711V184.334C256.673 184.85 257.442 185.108 258.282 185.108C259.408 185.108 259.971 184.733 259.971 183.982C259.971 183.769 259.921 183.589 259.822 183.443C259.728 183.291 259.598 183.159 259.431 183.044C259.269 182.929 259.077 182.827 258.852 182.739C258.633 182.645 258.396 182.549 258.141 182.449C257.786 182.309 257.473 182.168 257.202 182.027C256.936 181.881 256.712 181.72 256.53 181.542C256.352 181.36 256.217 181.154 256.123 180.924C256.034 180.695 255.99 180.427 255.99 180.119C255.99 179.744 256.076 179.413 256.248 179.126C256.42 178.834 256.65 178.591 256.936 178.398C257.223 178.2 257.549 178.052 257.914 177.953C258.284 177.854 258.665 177.804 259.056 177.804C259.749 177.804 260.37 177.924 260.917 178.164V179.462C260.328 179.076 259.65 178.883 258.884 178.883C258.644 178.883 258.427 178.912 258.235 178.969C258.042 179.021 257.875 179.097 257.734 179.196C257.599 179.295 257.492 179.415 257.413 179.556C257.34 179.691 257.304 179.843 257.304 180.009C257.304 180.218 257.34 180.393 257.413 180.533C257.492 180.674 257.604 180.799 257.75 180.909C257.896 181.018 258.073 181.117 258.282 181.206C258.49 181.295 258.727 181.391 258.993 181.495C259.348 181.631 259.666 181.772 259.947 181.918C260.229 182.058 260.469 182.22 260.667 182.403C260.865 182.58 261.016 182.786 261.12 183.02C261.23 183.255 261.285 183.534 261.285 183.857C261.285 184.253 261.196 184.598 261.019 184.889C260.847 185.181 260.615 185.424 260.323 185.617C260.031 185.81 259.694 185.953 259.314 186.047C258.933 186.141 258.534 186.188 258.117 186.188C257.294 186.188 256.579 186.029 255.974 185.711ZM266.978 185.922C266.676 186.089 266.277 186.172 265.781 186.172C264.379 186.172 263.678 185.39 263.678 183.826V179.087H262.301V177.992H263.678V176.037L264.96 175.622V177.992H266.978V179.087H264.96V183.599C264.96 184.136 265.051 184.519 265.234 184.749C265.416 184.978 265.719 185.093 266.141 185.093C266.464 185.093 266.743 185.004 266.978 184.827V185.922ZM274.423 186H273.141V184.749H273.109C272.551 185.708 271.73 186.188 270.646 186.188C269.848 186.188 269.222 185.977 268.769 185.554C268.32 185.132 268.096 184.571 268.096 183.873C268.096 182.376 268.977 181.506 270.74 181.261L273.141 180.924C273.141 179.564 272.59 178.883 271.49 178.883C270.526 178.883 269.655 179.212 268.878 179.869V178.555C269.666 178.054 270.573 177.804 271.6 177.804C273.482 177.804 274.423 178.8 274.423 180.792V186ZM273.141 181.949L271.209 182.215C270.614 182.298 270.166 182.447 269.864 182.661C269.561 182.869 269.41 183.242 269.41 183.779C269.41 184.17 269.548 184.491 269.825 184.741C270.106 184.986 270.479 185.108 270.943 185.108C271.579 185.108 272.103 184.887 272.515 184.444C272.932 183.995 273.141 183.43 273.141 182.747V181.949ZM283.675 186H282.392V184.639H282.361C281.767 185.672 280.849 186.188 279.608 186.188C278.602 186.188 277.796 185.831 277.192 185.116C276.592 184.397 276.292 183.419 276.292 182.184C276.292 180.859 276.626 179.798 277.293 179.001C277.961 178.203 278.85 177.804 279.96 177.804C281.06 177.804 281.86 178.237 282.361 179.102H282.392V174.144H283.675V186ZM282.392 182.379V181.198C282.392 180.552 282.178 180.004 281.751 179.556C281.323 179.108 280.781 178.883 280.124 178.883C279.342 178.883 278.727 179.17 278.279 179.744C277.83 180.317 277.606 181.11 277.606 182.121C277.606 183.044 277.82 183.774 278.247 184.311C278.68 184.843 279.259 185.108 279.983 185.108C280.698 185.108 281.276 184.85 281.72 184.334C282.168 183.818 282.392 183.166 282.392 182.379ZM286.928 175.958C286.699 175.958 286.503 175.88 286.342 175.724C286.18 175.567 286.099 175.369 286.099 175.129C286.099 174.89 286.18 174.692 286.342 174.535C286.503 174.373 286.699 174.293 286.928 174.293C287.163 174.293 287.361 174.373 287.522 174.535C287.689 174.692 287.773 174.89 287.773 175.129C287.773 175.359 287.689 175.554 287.522 175.716C287.361 175.878 287.163 175.958 286.928 175.958ZM287.554 186H286.271V177.992H287.554V186ZM289.665 185.711V184.334C290.364 184.85 291.133 185.108 291.972 185.108C293.099 185.108 293.662 184.733 293.662 183.982C293.662 183.769 293.612 183.589 293.513 183.443C293.419 183.291 293.289 183.159 293.122 183.044C292.96 182.929 292.767 182.827 292.543 182.739C292.324 182.645 292.087 182.549 291.832 182.449C291.477 182.309 291.164 182.168 290.893 182.027C290.627 181.881 290.403 181.72 290.221 181.542C290.043 181.36 289.908 181.154 289.814 180.924C289.725 180.695 289.681 180.427 289.681 180.119C289.681 179.744 289.767 179.413 289.939 179.126C290.111 178.834 290.34 178.591 290.627 178.398C290.914 178.2 291.24 178.052 291.605 177.953C291.975 177.854 292.356 177.804 292.747 177.804C293.44 177.804 294.06 177.924 294.608 178.164V179.462C294.019 179.076 293.341 178.883 292.575 178.883C292.335 178.883 292.118 178.912 291.925 178.969C291.733 179.021 291.566 179.097 291.425 179.196C291.289 179.295 291.182 179.415 291.104 179.556C291.031 179.691 290.995 179.843 290.995 180.009C290.995 180.218 291.031 180.393 291.104 180.533C291.182 180.674 291.295 180.799 291.441 180.909C291.587 181.018 291.764 181.117 291.972 181.206C292.181 181.295 292.418 181.391 292.684 181.495C293.039 181.631 293.357 181.772 293.638 181.918C293.92 182.058 294.16 182.22 294.358 182.403C294.556 182.58 294.707 182.786 294.811 183.02C294.921 183.255 294.975 183.534 294.975 183.857C294.975 184.253 294.887 184.598 294.71 184.889C294.537 185.181 294.305 185.424 294.014 185.617C293.722 185.81 293.385 185.953 293.005 186.047C292.624 186.141 292.225 186.188 291.808 186.188C290.984 186.188 290.27 186.029 289.665 185.711ZM300.669 185.922C300.366 186.089 299.968 186.172 299.472 186.172C298.07 186.172 297.369 185.39 297.369 183.826V179.087H295.992V177.992H297.369V176.037L298.651 175.622V177.992H300.669V179.087H298.651V183.599C298.651 184.136 298.742 184.519 298.925 184.749C299.107 184.978 299.41 185.093 299.832 185.093C300.155 185.093 300.434 185.004 300.669 184.827V185.922ZM303.038 175.958C302.809 175.958 302.614 175.88 302.452 175.724C302.29 175.567 302.209 175.369 302.209 175.129C302.209 174.89 302.29 174.692 302.452 174.535C302.614 174.373 302.809 174.293 303.038 174.293C303.273 174.293 303.471 174.373 303.633 174.535C303.8 174.692 303.883 174.89 303.883 175.129C303.883 175.359 303.8 175.554 303.633 175.716C303.471 175.878 303.273 175.958 303.038 175.958ZM303.664 186H302.381V177.992H303.664V186ZM311.719 185.632C311.104 186.003 310.374 186.188 309.529 186.188C308.388 186.188 307.465 185.818 306.761 185.077C306.062 184.332 305.713 183.367 305.713 182.184C305.713 180.865 306.091 179.806 306.847 179.008C307.603 178.206 308.612 177.804 309.874 177.804C310.577 177.804 311.198 177.934 311.735 178.195V179.509C311.14 179.092 310.504 178.883 309.827 178.883C309.008 178.883 308.336 179.178 307.809 179.767C307.288 180.351 307.027 181.12 307.027 182.074C307.027 183.013 307.272 183.753 307.762 184.295C308.257 184.837 308.919 185.108 309.748 185.108C310.447 185.108 311.104 184.876 311.719 184.412V185.632ZM319.391 186H318.109V184.749H318.077C317.519 185.708 316.698 186.188 315.614 186.188C314.816 186.188 314.191 185.977 313.737 185.554C313.289 185.132 313.064 184.571 313.064 183.873C313.064 182.376 313.945 181.506 315.708 181.261L318.109 180.924C318.109 179.564 317.559 178.883 316.458 178.883C315.494 178.883 314.623 179.212 313.846 179.869V178.555C314.634 178.054 315.541 177.804 316.568 177.804C318.45 177.804 319.391 178.8 319.391 180.792V186ZM318.109 181.949L316.177 182.215C315.583 182.298 315.134 182.447 314.832 182.661C314.529 182.869 314.378 183.242 314.378 183.779C314.378 184.17 314.516 184.491 314.793 184.741C315.074 184.986 315.447 185.108 315.911 185.108C316.547 185.108 317.071 184.887 317.483 184.444C317.9 183.995 318.109 183.43 318.109 182.747V181.949ZM321.323 185.711V184.334C322.021 184.85 322.79 185.108 323.63 185.108C324.756 185.108 325.319 184.733 325.319 183.982C325.319 183.769 325.27 183.589 325.171 183.443C325.077 183.291 324.946 183.159 324.78 183.044C324.618 182.929 324.425 182.827 324.201 182.739C323.982 182.645 323.745 182.549 323.489 182.449C323.135 182.309 322.822 182.168 322.551 182.027C322.285 181.881 322.061 181.72 321.878 181.542C321.701 181.36 321.565 181.154 321.471 180.924C321.383 180.695 321.338 180.427 321.338 180.119C321.338 179.744 321.424 179.413 321.597 179.126C321.769 178.834 321.998 178.591 322.285 178.398C322.572 178.2 322.897 178.052 323.262 177.953C323.632 177.854 324.013 177.804 324.404 177.804C325.098 177.804 325.718 177.924 326.265 178.164V179.462C325.676 179.076 324.998 178.883 324.232 178.883C323.992 178.883 323.776 178.912 323.583 178.969C323.39 179.021 323.223 179.097 323.082 179.196C322.947 179.295 322.84 179.415 322.762 179.556C322.689 179.691 322.652 179.843 322.652 180.009C322.652 180.218 322.689 180.393 322.762 180.533C322.84 180.674 322.952 180.799 323.098 180.909C323.244 181.018 323.421 181.117 323.63 181.206C323.838 181.295 324.076 181.391 324.342 181.495C324.696 181.631 325.014 181.772 325.296 181.918C325.577 182.058 325.817 182.22 326.015 182.403C326.213 182.58 326.364 182.786 326.469 183.02C326.578 183.255 326.633 183.534 326.633 183.857C326.633 184.253 326.544 184.598 326.367 184.889C326.195 185.181 325.963 185.424 325.671 185.617C325.379 185.81 325.043 185.953 324.662 186.047C324.282 186.141 323.883 186.188 323.466 186.188C322.642 186.188 321.928 186.029 321.323 185.711Z" fill="white"/>
<path d="M339.028 189.253L346.301 181.972L339.028 174.691L339.731 173.987L347.724 181.972L339.731 189.957L339.028 189.253Z" fill="white"/>
<defs>
<clipPath id="clip0_186_28">
<rect width="278" height="188" fill="white" transform="translate(51 13)"/>
</clipPath>
</defs>
</svg>
